<svg xmlns="http://www.w3.org/2000/svg" xmlns:xlink="http://www.w3.org/1999/xlink" viewBox="0 0 616.68 439.96"><defs><style>.cls-1{isolation:isolate;}.cls-2{fill:url(#Blue_2);}.cls-3{fill:url(#Blue_2-2);}.cls-4{fill:#fff3ff;}.cls-5{fill:#cce2ff;}.cls-10,.cls-6{fill:#dde8ff;}.cls-6,.cls-9{opacity:0.55;mix-blend-mode:multiply;}.cls-7{fill:#b9d7ff;}.cls-8{fill:url(#_ÂÁ_Ï_ÌÌ_È_ËÂÌÚ_15);}.cls-114,.cls-9{fill:#d1e0ff;}.cls-11{fill:none;}.cls-12{fill:url(#Blue_2-3);}.cls-13{fill:url(#Blue_2-4);}.cls-14{fill:url(#Blue_2-5);}.cls-15{fill:url(#Blue_2-6);}.cls-16{fill:url(#Blue_2-7);}.cls-17{fill:url(#Blue_2-8);}.cls-18{fill:url(#Blue_2-9);}.cls-19{fill:url(#Blue_2-10);}.cls-20{fill:url(#Blue_2-11);}.cls-21{fill:url(#Blue_2-12);}.cls-22{fill:url(#Blue_2-13);}.cls-23{fill:url(#Blue_2-14);}.cls-24{fill:url(#Blue_2-15);}.cls-25{fill:url(#Blue_2-16);}.cls-26{fill:url(#Blue_2-17);}.cls-27{fill:url(#Blue_2-18);}.cls-28{fill:url(#Blue_2-19);}.cls-29{fill:url(#Blue_2-20);}.cls-30{fill:url(#Blue_2-21);}.cls-31{fill:url(#Blue_2-22);}.cls-32{fill:url(#Blue_2-23);}.cls-33{fill:url(#Blue_2-24);}.cls-34{fill:url(#Blue_2-25);}.cls-35{fill:url(#Blue_2-26);}.cls-36{fill:url(#Blue_2-27);}.cls-37{fill:url(#Blue_2-28);}.cls-38{fill:url(#Blue_2-29);}.cls-39{fill:url(#Blue_2-30);}.cls-40{fill:url(#Blue_2-31);}.cls-41{fill:url(#Blue_2-32);}.cls-42{fill:url(#Blue_2-33);}.cls-43{fill:url(#Blue_2-34);}.cls-44{fill:url(#Blue_2-35);}.cls-45{fill:url(#Blue_2-36);}.cls-46{fill:url(#Blue_2-37);}.cls-47{fill:url(#Blue_2-38);}.cls-48{fill:url(#Blue_2-39);}.cls-49{fill:url(#Blue_2-40);}.cls-50{fill:url(#Blue_2-41);}.cls-51{fill:url(#Blue_2-42);}.cls-52{fill:url(#Blue_2-43);}.cls-53{fill:url(#Blue_2-44);}.cls-54{fill:url(#Blue_2-45);}.cls-55{fill:url(#Blue_2-46);}.cls-56{fill:url(#Blue_2-47);}.cls-57{fill:url(#Blue_2-48);}.cls-58{fill:url(#Blue_2-49);}.cls-59{fill:url(#Blue_2-50);}.cls-60{fill:url(#Blue_2-51);}.cls-61{fill:url(#Blue_2-52);}.cls-62{fill:url(#Blue_2-53);}.cls-63{fill:url(#Blue_2-54);}.cls-64{fill:url(#Blue_2-55);}.cls-65{fill:url(#Blue_2-56);}.cls-66{fill:url(#Blue_2-57);}.cls-67{fill:url(#Blue_2-58);}.cls-68{fill:url(#Blue_2-59);}.cls-69{fill:url(#Blue_2-60);}.cls-70{fill:url(#Blue_2-61);}.cls-71{fill:url(#Blue_2-62);}.cls-72{fill:url(#Blue_2-63);}.cls-73{fill:url(#Blue_2-64);}.cls-74{fill:url(#Blue_2-65);}.cls-75{fill:url(#Blue_2-66);}.cls-76{fill:url(#Blue_2-67);}.cls-77{fill:url(#Blue_2-68);}.cls-78{fill:url(#Blue_2-69);}.cls-79{fill:url(#Blue_2-70);}.cls-80{fill:url(#Blue_2-71);}.cls-81{fill:url(#Blue_2-72);}.cls-82{fill:url(#Blue_2-73);}.cls-83{fill:url(#Blue_2-74);}.cls-84{fill:url(#Blue_2-75);}.cls-85{fill:url(#Blue_2-76);}.cls-86{fill:url(#Blue_2-77);}.cls-87{fill:url(#Blue_2-78);}.cls-88{fill:url(#Blue_2-79);}.cls-89{fill:url(#Blue_2-80);}.cls-90{fill:url(#Blue_2-81);}.cls-91{fill:url(#Blue_2-82);}.cls-92{fill:url(#Blue_2-83);}.cls-93{fill:url(#Blue_2-84);}.cls-94{fill:url(#Blue_2-85);}.cls-95{fill:url(#Blue_2-86);}.cls-96{fill:url(#Blue_2-87);}.cls-97{fill:url(#Blue_2-88);}.cls-98{fill:url(#Blue_2-89);}.cls-99{fill:url(#Blue_2-90);}.cls-100{fill:url(#Blue_2-91);}.cls-101{fill:url(#Blue_2-92);}.cls-102{fill:url(#Blue_2-93);}.cls-103{fill:url(#Blue_2-94);}.cls-104{fill:url(#Blue_2-95);}.cls-105{fill:url(#Blue_2-96);}.cls-106{fill:url(#Blue_2-97);}.cls-107{fill:url(#Blue_2-98);}.cls-108{fill:url(#Blue_2-99);}.cls-109{fill:url(#Blue_2-100);}.cls-110{fill:url(#Blue_2-101);}.cls-111{fill:url(#Blue_2-102);}.cls-112{fill:#c0d5f3;}.cls-113{fill:url(#Blue_2-103);}.cls-115{fill:url(#_ÂÁ_Ï_ÌÌ_È_ËÂÌÚ_15-2);}.cls-116{fill:#8d0034;}.cls-117{fill:#76777a;}</style><linearGradient id="Blue_2" x1="70.69" y1="117.62" x2="226.75" y2="117.62" gradientUnits="userSpaceOnUse"><stop offset="0.01" stop-color="#fcf2ff"/><stop offset="0.45" stop-color="#d7e3ff"/><stop offset="1" stop-color="#c2d3ff"/></linearGradient><linearGradient id="Blue_2-2" x1="483.96" y1="83.64" x2="592.32" y2="83.64" gradientTransform="matrix(1, 0.03, 0.03, -1, 46.86, 153.42)" xlink:href="#Blue_2"/><linearGradient id="_ÂÁ_Ï_ÌÌ_È_ËÂÌÚ_15" x1="509.29" y1="223.67" x2="485.4" y2="270.75" xlink:href="#Blue_2"/><linearGradient id="Blue_2-3" x1="301.38" y1="309.95" x2="206.32" y2="548.35" xlink:href="#Blue_2"/><linearGradient id="Blue_2-4" x1="244.91" y1="405.15" x2="240.5" y2="550.91" xlink:href="#Blue_2"/><linearGradient id="Blue_2-5" x1="118.58" y1="401.32" x2="114.16" y2="547.08" xlink:href="#Blue_2"/><linearGradient id="Blue_2-6" x1="117.81" y1="401.3" x2="113.39" y2="547.06" xlink:href="#Blue_2"/><linearGradient id="Blue_2-7" x1="410.81" y1="410.18" x2="406.39" y2="555.94" xlink:href="#Blue_2"/><linearGradient id="Blue_2-8" x1="243.09" y1="405.09" x2="238.67" y2="550.86" xlink:href="#Blue_2"/><linearGradient id="Blue_2-9" x1="114.67" y1="401.2" x2="110.25" y2="546.96" xlink:href="#Blue_2"/><linearGradient id="Blue_2-10" x1="410.91" y1="410.18" x2="406.5" y2="555.94" xlink:href="#Blue_2"/><linearGradient id="Blue_2-11" x1="114.5" y1="401.2" x2="110.08" y2="546.96" xlink:href="#Blue_2"/><linearGradient id="Blue_2-12" x1="243.26" y1="405.1" x2="238.85" y2="550.86" xlink:href="#Blue_2"/><linearGradient id="Blue_2-13" x1="243.32" y1="405.1" x2="238.91" y2="550.86" xlink:href="#Blue_2"/><linearGradient id="Blue_2-14" x1="271.07" y1="405.94" x2="266.66" y2="551.7" xlink:href="#Blue_2"/><linearGradient id="Blue_2-15" x1="430.1" y1="410.76" x2="425.68" y2="556.52" xlink:href="#Blue_2"/><linearGradient id="Blue_2-16" x1="114.19" y1="401.19" x2="109.78" y2="546.95" xlink:href="#Blue_2"/><linearGradient id="Blue_2-17" x1="269.9" y1="405.91" x2="265.48" y2="551.67" xlink:href="#Blue_2"/><linearGradient id="Blue_2-18" x1="268.13" y1="405.85" x2="263.71" y2="551.62" xlink:href="#Blue_2"/><linearGradient id="Blue_2-19" x1="339.57" y1="408.02" x2="335.16" y2="553.78" xlink:href="#Blue_2"/><linearGradient id="Blue_2-20" x1="158.07" y1="402.52" x2="153.65" y2="548.28" xlink:href="#Blue_2"/><linearGradient id="Blue_2-21" x1="113.25" y1="401.16" x2="108.83" y2="546.92" xlink:href="#Blue_2"/><linearGradient id="Blue_2-22" x1="136.14" y1="401.85" x2="131.73" y2="547.62" xlink:href="#Blue_2"/><linearGradient id="Blue_2-23" x1="347.7" y1="408.26" x2="343.28" y2="554.03" xlink:href="#Blue_2"/><linearGradient id="Blue_2-24" x1="127.57" y1="401.59" x2="123.16" y2="547.36" xlink:href="#Blue_2"/><linearGradient id="Blue_2-25" x1="242.43" y1="405.07" x2="238.93" y2="520.54" xlink:href="#Blue_2"/><linearGradient id="Blue_2-26" x1="113.64" y1="401.17" x2="109.23" y2="546.93" xlink:href="#Blue_2"/><linearGradient id="Blue_2-27" x1="240.33" y1="405.01" x2="235.91" y2="550.77" xlink:href="#Blue_2"/><linearGradient id="Blue_2-28" x1="355.98" y1="408.52" x2="351.56" y2="554.28" xlink:href="#Blue_2"/><linearGradient id="Blue_2-29" x1="115.19" y1="401.22" x2="110.77" y2="546.98" xlink:href="#Blue_2"/><linearGradient id="Blue_2-30" x1="248.54" y1="405.26" x2="244.12" y2="551.02" xlink:href="#Blue_2"/><linearGradient id="Blue_2-31" x1="259.96" y1="405.61" x2="255.55" y2="551.37" xlink:href="#Blue_2"/><linearGradient id="Blue_2-32" x1="250.59" y1="405.32" x2="246.17" y2="551.08" xlink:href="#Blue_2"/><linearGradient id="Blue_2-33" x1="262.49" y1="405.68" x2="258.07" y2="551.44" xlink:href="#Blue_2"/><linearGradient id="Blue_2-34" x1="251.59" y1="405.35" x2="247.17" y2="551.11" xlink:href="#Blue_2"/><linearGradient id="Blue_2-35" x1="247.72" y1="405.23" x2="243.3" y2="551" xlink:href="#Blue_2"/><linearGradient id="Blue_2-36" x1="252.61" y1="405.38" x2="248.19" y2="551.14" xlink:href="#Blue_2"/><linearGradient id="Blue_2-37" x1="257.6" y1="405.53" x2="253.18" y2="551.3" xlink:href="#Blue_2"/><linearGradient id="Blue_2-38" x1="116.99" y1="401.27" x2="112.58" y2="547.04" xlink:href="#Blue_2"/><linearGradient id="Blue_2-39" x1="115.72" y1="401.23" x2="111.31" y2="547" xlink:href="#Blue_2"/><linearGradient id="Blue_2-40" x1="249.97" y1="405.3" x2="245.56" y2="551.06" xlink:href="#Blue_2"/><linearGradient id="Blue_2-41" x1="253.02" y1="405.4" x2="248.6" y2="551.16" xlink:href="#Blue_2"/><linearGradient id="Blue_2-42" x1="430.24" y1="410.77" x2="425.83" y2="556.53" xlink:href="#Blue_2"/><linearGradient id="Blue_2-43" x1="114.81" y1="401.21" x2="110.4" y2="546.97" xlink:href="#Blue_2"/><linearGradient id="Blue_2-44" x1="252.48" y1="405.38" x2="248.07" y2="551.14" xlink:href="#Blue_2"/><linearGradient id="Blue_2-45" x1="251.13" y1="405.34" x2="246.71" y2="551.1" xlink:href="#Blue_2"/><linearGradient id="Blue_2-46" x1="430.28" y1="410.77" x2="425.86" y2="556.53" xlink:href="#Blue_2"/><linearGradient id="Blue_2-47" x1="114.43" y1="401.2" x2="110.01" y2="546.96" xlink:href="#Blue_2"/><linearGradient id="Blue_2-48" x1="116.32" y1="401.25" x2="111.9" y2="547.01" xlink:href="#Blue_2"/><linearGradient id="Blue_2-49" x1="268.1" y1="405.85" x2="263.68" y2="551.61" xlink:href="#Blue_2"/><linearGradient id="Blue_2-50" x1="265.19" y1="405.76" x2="260.77" y2="551.53" xlink:href="#Blue_2"/><linearGradient id="Blue_2-51" x1="246.84" y1="405.21" x2="242.42" y2="550.97" xlink:href="#Blue_2"/><linearGradient id="Blue_2-52" x1="243.89" y1="405.12" x2="239.47" y2="550.88" xlink:href="#Blue_2"/><linearGradient id="Blue_2-53" x1="112.98" y1="401.15" x2="108.56" y2="546.91" xlink:href="#Blue_2"/><linearGradient id="Blue_2-54" x1="185.22" y1="403.34" x2="180.81" y2="549.1" xlink:href="#Blue_2"/><linearGradient id="Blue_2-55" x1="183.35" y1="403.28" x2="178.93" y2="549.05" xlink:href="#Blue_2"/><linearGradient id="Blue_2-56" x1="295.41" y1="406.68" x2="290.99" y2="552.44" xlink:href="#Blue_2"/><linearGradient id="Blue_2-57" x1="300.57" y1="406.84" x2="296.15" y2="552.6" xlink:href="#Blue_2"/><linearGradient id="Blue_2-58" x1="281.23" y1="406.25" x2="276.81" y2="552.01" xlink:href="#Blue_2"/><linearGradient id="Blue_2-59" x1="190.27" y1="403.49" x2="185.85" y2="549.26" xlink:href="#Blue_2"/><linearGradient id="Blue_2-60" x1="75.22" y1="400.01" x2="70.81" y2="545.77" xlink:href="#Blue_2"/><linearGradient id="Blue_2-61" x1="245.9" y1="405.18" x2="241.49" y2="550.94" xlink:href="#Blue_2"/><linearGradient id="Blue_2-62" x1="240.17" y1="405.01" x2="235.76" y2="550.77" xlink:href="#Blue_2"/><linearGradient id="Blue_2-63" x1="253.23" y1="405.4" x2="248.82" y2="551.16" xlink:href="#Blue_2"/><linearGradient id="Blue_2-64" x1="249.29" y1="405.28" x2="244.87" y2="551.04" xlink:href="#Blue_2"/><linearGradient id="Blue_2-65" x1="298.32" y1="406.77" x2="293.91" y2="552.53" xlink:href="#Blue_2"/><linearGradient id="Blue_2-66" x1="76.32" y1="400.04" x2="71.91" y2="545.8" xlink:href="#Blue_2"/><linearGradient id="Blue_2-67" x1="184.66" y1="403.32" x2="180.24" y2="549.09" xlink:href="#Blue_2"/><linearGradient id="Blue_2-68" x1="251.97" y1="405.36" x2="247.55" y2="551.13" xlink:href="#Blue_2"/><linearGradient id="Blue_2-69" x1="281.89" y1="406.27" x2="277.47" y2="552.03" xlink:href="#Blue_2"/><linearGradient id="Blue_2-70" x1="282.3" y1="406.28" x2="277.88" y2="552.04" xlink:href="#Blue_2"/><linearGradient id="Blue_2-71" x1="266.59" y1="405.81" x2="262.18" y2="551.57" xlink:href="#Blue_2"/><linearGradient id="Blue_2-72" x1="158.06" y1="402.52" x2="153.64" y2="548.28" xlink:href="#Blue_2"/><linearGradient id="Blue_2-73" x1="239.9" y1="405" x2="235.48" y2="550.76" xlink:href="#Blue_2"/><linearGradient id="Blue_2-74" x1="238.96" y1="404.97" x2="234.55" y2="550.73" xlink:href="#Blue_2"/><linearGradient id="Blue_2-75" x1="252.27" y1="405.37" x2="247.85" y2="551.13" xlink:href="#Blue_2"/><linearGradient id="Blue_2-76" x1="292.7" y1="406.6" x2="288.28" y2="552.36" xlink:href="#Blue_2"/><linearGradient id="Blue_2-77" x1="239.46" y1="404.98" x2="235.04" y2="550.75" xlink:href="#Blue_2"/><linearGradient id="Blue_2-78" x1="282.53" y1="406.29" x2="278.12" y2="552.05" xlink:href="#Blue_2"/><linearGradient id="Blue_2-79" x1="76.79" y1="400.05" x2="72.37" y2="545.82" xlink:href="#Blue_2"/><linearGradient id="Blue_2-80" x1="96.3" y1="400.65" x2="91.88" y2="546.41" xlink:href="#Blue_2"/><linearGradient id="Blue_2-81" x1="112.83" y1="401.15" x2="108.42" y2="546.91" xlink:href="#Blue_2"/><linearGradient id="Blue_2-82" x1="303.92" y1="406.94" x2="299.5" y2="552.7" xlink:href="#Blue_2"/><linearGradient id="Blue_2-83" x1="94.54" y1="400.59" x2="90.12" y2="546.35" xlink:href="#Blue_2"/><linearGradient id="Blue_2-84" x1="167.81" y1="402.81" x2="163.4" y2="548.58" xlink:href="#Blue_2"/><linearGradient id="Blue_2-85" x1="167.56" y1="402.81" x2="163.14" y2="548.57" xlink:href="#Blue_2"/><linearGradient id="Blue_2-86" x1="167.53" y1="402.8" x2="163.11" y2="548.57" xlink:href="#Blue_2"/><linearGradient id="Blue_2-87" x1="158.24" y1="402.52" x2="153.82" y2="548.28" xlink:href="#Blue_2"/><linearGradient id="Blue_2-88" x1="266.07" y1="405.79" x2="261.65" y2="551.55" xlink:href="#Blue_2"/><linearGradient id="Blue_2-89" x1="299.45" y1="406.8" x2="295.85" y2="525.52" xlink:href="#Blue_2"/><linearGradient id="Blue_2-90" x1="267.39" y1="405.83" x2="262.97" y2="551.59" xlink:href="#Blue_2"/><linearGradient id="Blue_2-91" x1="331.48" y1="407.77" x2="327.07" y2="553.53" xlink:href="#Blue_2"/><linearGradient id="Blue_2-92" x1="168.33" y1="402.83" x2="163.91" y2="548.59" xlink:href="#Blue_2"/><linearGradient id="Blue_2-93" x1="266.73" y1="405.81" x2="262.31" y2="551.57" xlink:href="#Blue_2"/><linearGradient id="Blue_2-94" x1="268.96" y1="405.88" x2="264.54" y2="551.64" xlink:href="#Blue_2"/><linearGradient id="Blue_2-95" x1="298.49" y1="406.77" x2="294.07" y2="552.53" xlink:href="#Blue_2"/><linearGradient id="Blue_2-96" x1="76.42" y1="400.04" x2="72" y2="545.81" xlink:href="#Blue_2"/><linearGradient id="Blue_2-97" x1="303.03" y1="406.91" x2="298.61" y2="552.67" xlink:href="#Blue_2"/><linearGradient id="Blue_2-98" x1="303.82" y1="406.93" x2="299.4" y2="552.7" xlink:href="#Blue_2"/><linearGradient id="Blue_2-99" x1="168.88" y1="402.85" x2="164.47" y2="548.61" xlink:href="#Blue_2"/><linearGradient id="Blue_2-100" x1="303.56" y1="406.93" x2="299.15" y2="552.69" xlink:href="#Blue_2"/><linearGradient id="Blue_2-101" x1="170.48" y1="402.89" x2="166.07" y2="548.66" xlink:href="#Blue_2"/><linearGradient id="Blue_2-102" x1="169.58" y1="402.87" x2="165.17" y2="548.63" xlink:href="#Blue_2"/><linearGradient id="Blue_2-103" x1="297.37" y1="241.96" x2="283.49" y2="355.21" xlink:href="#Blue_2"/><linearGradient id="_ÂÁ_Ï_ÌÌ_È_ËÂÌÚ_15-2" x1="456.9" y1="156.17" x2="409.31" y2="243.82" xlink:href="#Blue_2"/></defs><title>hero-image</title><g class="cls-1"><g id="Layer_1" data-name="Layer 1"><path class="cls-2" d="M124.94,76.13c-4,1.78-8.06,3.89-10.88,7.27s-4.17,8.32-2.27,12.3c.89,1.88,2.47,3.51,2.74,5.59.58,4.51-4.85,7.07-9.13,8.64a65.23,65.23,0,0,0-27,18.85c-5.11,6-9.27,13.95-7.2,21.57,2.41,8.85,13,13,20.82,16,11,4.21,23.57,3.52,34.82.75,8.14-2,16.44-5.35,21.58-12,3.17-4.09,4.92-9.15,8.17-13.16,7.07-8.7,19.32-10.61,30.35-12.59,8.63-1.56,19.4-4.1,25.14-11.38,5-6.36,13.08-16.3,14.41-24.41,1.64-10-5.67-19.93-14.92-24.2-13.3-6.15-28-2.28-42-2.42A108.51,108.51,0,0,0,124.94,76.13Z" transform="translate(-23.98 -39.06)"/><path class="cls-3" d="M569.73,112c-2.76-1.31-5.53-2.85-7.42-5.25s-2.74-5.84-1.36-8.57c.66-1.29,1.78-2.4,2-3.83.48-3.12-3.25-5-6.19-6.16a45.21,45.21,0,0,1-18.38-13.57c-3.44-4.26-6.18-9.85-4.61-15.1,1.83-6.1,9.26-8.8,14.73-10.73,7.71-2.73,16.43-2,24.18.1,5.62,1.55,11.32,4,14.77,8.7,2.13,2.89,3.25,6.43,5.44,9.28,4.75,6.16,13.22,7.7,20.84,9.28,6,1.23,13.39,3.18,17.24,8.34,3.36,4.51,8.79,11.55,9.57,17.2,1,7-4.3,13.74-10.79,16.53-9.34,4-19.51,1.09-29.18.93A75.37,75.37,0,0,1,569.73,112Z" transform="translate(-23.98 -39.06)"/><path class="cls-4" d="M209.7,213.39a42.31,42.31,0,0,0,14.07,4.05c22.51,2.47,45.93-10,56.7-30.1,22.68,21.67,54.61,32,85.82,31.59s61.72-10.81,89-26.13c4.41-2.48,9-5.15,14-5.41,11.94-.6,21.07,12.25,33,12.88,10.38.54,19.3-9,21.24-19.31S522,160,517.31,150.66c-13-25.84-29.22-50.94-51.61-69.47-9.39-7.77-14.86-11.71-26.92-15a205.67,205.67,0,0,0-36.36-6.37c-27.7-2.34-52.77,3.3-79.74,8C298.13,72.18,275,83.13,257.27,101c-3.31,3.33-6.36,9.19-2.74,12.18,1.35,1.11,3.24,1.31,4.7,2.29,3.14,2.1,3,7.1.8,10.18s-5.82,4.74-9.2,6.41a148.77,148.77,0,0,0-40.54,29.43c-9.92,10.15-18.88,24.53-14,37.91C198.62,205.73,203.65,210.37,209.7,213.39Z" transform="translate(-23.98 -39.06)"/><rect class="cls-5" x="110.67" y="226.62" width="6.06" height="21.89"/><path class="cls-6" d="M170.86,245.54c2.43,12.48-14.46,27.87-34.57,23.35-22.25,5.85-44.11-16.76-28.88-52.07,3.81-5.85,6.28-15,25.87-15.93C160.36,195.36,179.62,221.28,170.86,245.54Z" transform="translate(-23.98 -39.06)"/><path class="cls-6" d="M173,234c-4.7,10.83-13.66,8.88-15.59,14.4a11.38,11.38,0,0,1-2.77,4.49c-2.64,2.58-7.44,3.2-11.88,2.51-7.31-1.12-2.86,4.81-13.38,4.27-6.11-.31-5.67,3.87-11.46,3.5-.71,0-4.18-1.49-7.51-1.6a25.85,25.85,0,0,0,25.85,7.29c20.11,4.52,37-10.87,34.57-23.35A41.65,41.65,0,0,0,173,234Z" transform="translate(-23.98 -39.06)"/><rect class="cls-7" x="469.77" y="230.56" width="4.14" height="14.95"/><path class="cls-8" d="M518.47,255.86c1.66,8.52-9.88,19-23.61,15.95-15.19,4-30.12-11.45-19.72-35.55,2.61-4,4.29-10.28,17.67-10.88C511.3,221.6,524.45,239.3,518.47,255.86Z" transform="translate(-23.98 -39.06)"/><path class="cls-9" d="M520,248c-3.2,7.39-9.32,6.06-10.64,9.83a7.83,7.83,0,0,1-1.9,3.07c-1.8,1.76-5.07,2.18-8.1,1.71-5-.77-2,3.28-9.14,2.92-4.17-.22-3.87,2.63-7.83,2.38a25.87,25.87,0,0,0-5.13-1.09,17.66,17.66,0,0,0,17.65,5c13.73,3.09,25.27-7.43,23.61-15.95A28.38,28.38,0,0,0,520,248Z" transform="translate(-23.98 -39.06)"/><rect class="cls-5" x="59.03" y="223.29" width="6.98" height="25.23"/><path class="cls-10" d="M124.73,239.13c2.8,14.38-16.67,32.13-39.84,26.91-25.63,6.75-50.83-19.31-33.28-60,4.39-6.75,7.24-17.35,29.81-18.36C112.63,181.31,134.82,211.19,124.73,239.13Z" transform="translate(-23.98 -39.06)"/><path class="cls-6" d="M127.23,225.87c-5.41,12.48-15.74,10.24-18,16.59a13.12,13.12,0,0,1-3.2,5.18c-3,3-8.57,3.69-13.68,2.9-8.43-1.3-3.31,5.54-15.43,4.92-7-.36-6.53,4.45-13.2,4-.82-.05-4.82-1.72-8.66-1.85A29.77,29.77,0,0,0,84.89,266c23.17,5.22,42.64-12.53,39.84-26.91A48,48,0,0,0,127.23,225.87Z" transform="translate(-23.98 -39.06)"/><path class="cls-11" d="M473.63,289.67c18.65-.1,42.89-.48,69.37-1a37.77,37.77,0,0,0-13.11-14.61L552,170.69,443.31,39.06,307.27,47,116.79,172.87a60.31,60.31,0,0,1-19.91,8.5l-21.73,4.94a36.23,36.23,0,0,0-26.08,23.1L32.52,255.5s-11.23,32.76-7.92,66.58C78.17,315.92,307.58,290.65,473.63,289.67Z" transform="translate(-23.98 -39.06)"/><path class="cls-12" d="M24.6,322.08c2.26,23.08,11.29,46.66,35.3,60.63,67.26,39.15-6.18,94.53,240.3,96.3,55.66.4,172.28-8.12,214.72-46.33,33.15-29.84,47.65-107.63,28.08-144-26.48.53-50.72.91-69.37,1C307.58,290.65,78.17,315.92,24.6,322.08Z" transform="translate(-23.98 -39.06)"/><path class="cls-11" d="M529.89,274.05,552,170.69,443.31,39.06,307.27,47,116.79,172.87a60.31,60.31,0,0,1-19.91,8.5l-21.73,4.94a36.23,36.23,0,0,0-26.08,23.1L32.52,255.5S.71,348.26,59.9,382.71a88.21,88.21,0,0,1,15.14,11c.24-.49.51-1,.79-1.42.08-.11.16-.23.23-.35a13,13,0,0,1,1.06-1.38c-.07.68-.11,1.37-.15,2.05,0,.45,0,.91-.06,1.36h0c0,.49,0,1,0,1.48a80.52,80.52,0,0,1,11.29,13.83l.06-.73.21,1.14c4.37,6.71,7.74,13.44,11.86,19.94l.92,0h.22a89.23,89.23,0,0,0-6-28.53l-.06-.07c-.85-2.15-1.76-4.27-2.79-6.3.54.57,1.08,1.16,1.6,1.75.34.38.67.77,1,1.15l.57.66c.43.52.86,1.05,1.28,1.59.07.09.15.18.22.28a94.42,94.42,0,0,1,15.17,29.08h.21a57.5,57.5,0,0,1-.38-7.3c0-.17,0-.34,0-.51,0-.66,0-1.31.07-2l0-.56c.08-1.18.19-2.35.34-3.51l.09-.73c.06-.44.14-.86.21-1.29s.17-1,.26-1.42.15-.74.24-1.11c.12-.55.25-1.1.39-1.64.08-.3.15-.6.23-.89.24-.84.49-1.67.76-2.49a10.51,10.51,0,0,0-.33,1.2l0,.2c-.08.36-.14.73-.19,1.11a.49.49,0,0,0,0,.12c0,.42-.09.84-.11,1.28v0c0,.47,0,1,0,1.45h0c0,.37,0,.74,0,1.13,0,.59.1,1.21.18,1.83,0,.12,0,.24,0,.37.08.56.17,1.13.28,1.7l0,.21c.13.66.27,1.32.42,2l.06.23c.14.58.28,1.16.44,1.74l.12.45c.17.6.35,1.2.53,1.8,0,.05,0,.1.05.16.2.65.42,1.3.64,1.95,0,.16.11.31.16.46.17.5.35,1,.53,1.49l.2.51c.23.62.47,1.24.71,1.84l5.48-.14,5.32-.11h.19q5.61-.11,11.47-.18h0l1.53,0a70.85,70.85,0,0,0-9.18-14.59c-.84-1.08-1.68-2.16-2.53-3.23,6-.7,10.69,5,14.57,9.78,2.22,2.76,4.57,5.41,7,8h6a33.31,33.31,0,0,1-1-6.59h0a32.89,32.89,0,0,1,0-3.58v-.09q.06-.8.15-1.59c0-.08,0-.16,0-.24.07-.6.16-1.2.27-1.79a122.1,122.1,0,0,0,8.66,13.92h1.64a41,41,0,0,1-1.2-8.4h0c0-.82,0-1.64,0-2.45v-.08c0-.75.06-1.5.11-2.25l0-.29a39.09,39.09,0,0,1,.63-4.58l.09-.44c.13-.64.28-1.28.44-1.91l.09-.34c.19-.72.4-1.44.64-2.14,0-.14.09-.28.14-.42.19-.57.4-1.13.62-1.69.07-.19.14-.37.22-.56.28-.68.57-1.35.89-2,.35,7.64.71,15.37,2.83,22.69a42.46,42.46,0,0,0,1.77,5l6,.09,5.79.12h1a54.29,54.29,0,0,0-2.55-8.31h0c-.46-1.18-1-2.35-1.51-3.49l-.15-.3c-.23-.46-.46-.93-.7-1.39s-.61-1.14-.94-1.7A87,87,0,0,1,194.06,429l3.86.11h.1A55.27,55.27,0,0,0,192,403.93h0c-.47-.92-1-1.82-1.5-2.71l-.2-.34c-.52-.86-1.06-1.72-1.63-2.55,10.31,6.64,17.06,18.57,18.51,31.06q8.07.32,16.31.74l.21-.34c6.34-10.3,12-20.35,14.89-32.33.19.7.36,1.4.52,2.1,0,.22.09.43.14.64q.17.78.3,1.56c0,.22.08.44.11.65.11.71.22,1.42.3,2.13,0,.06,0,.12,0,.18.07.65.12,1.31.17,2,0,.25,0,.49,0,.73q0,.75.06,1.5c0,.25,0,.49,0,.73,0,.7,0,1.4,0,2.1h0c-.06,1.63-.21,3.25-.43,4.86.12-.15.23-.31.35-.47v0a13.45,13.45,0,0,0,2.13-4.43v0a12.73,12.73,0,0,0,.32-1.61c.11.57.2,1.15.27,1.73,0,.37.07.75.1,1.12,0,.18,0,.36,0,.55,0,.49,0,1,0,1.47v.15c0,.54,0,1.08,0,1.62h0a27.6,27.6,0,0,1-1.75,8.4c.39-.22.77-.46,1.14-.7h0c.28-.18.54-.38.81-.57l.32-.24c.24-.18.46-.37.69-.55l.39-.33.62-.56.41-.39c.19-.19.38-.38.56-.58l.41-.43.51-.6.39-.48.47-.61c.13-.17.25-.35.38-.53l.42-.62.36-.56.37-.63c.12-.2.23-.41.34-.61l.33-.64.3-.64c.1-.21.2-.42.29-.64s.19-.45.28-.68l.24-.64q.13-.36.24-.72c.07-.21.14-.42.2-.63s.14-.51.21-.76.11-.41.15-.61.12-.55.17-.83.08-.38.11-.57.09-.63.13-.94c0-.16,0-.32.06-.48,0-.47.09-.95.1-1.43.11.92.19,1.85.25,2.78,0,.39,0,.78.07,1.17s0,.94.05,1.42c0,1.2,0,2.4,0,3.6v0h0a66.46,66.46,0,0,1-2.59,17h.14a73,73,0,0,1,5.29-6.46l.06-.06c.73-.8,1.48-1.59,2.25-2.36l.22-.21c.72-.72,1.45-1.42,2.2-2.11l.46-.41q1-.92,2.07-1.8l.83-.66c.6-.49,1.2-1,1.81-1.44l1.38-1c.47-.33.92-.67,1.39-1,1-.65,1.91-1.28,2.89-1.88-.38.24-.74.49-1.09.75l-.33.28c-.23.18-.45.37-.66.56s-.25.23-.37.35-.37.37-.54.56l-.35.4c-.16.2-.32.39-.47.59l-.33.44-.42.63c-.1.15-.2.29-.29.45s-.27.47-.4.71-.16.28-.23.42c-.19.38-.37.76-.54,1.16h0a37.36,37.36,0,0,0-2.51,13.09l2.21.2a41.22,41.22,0,0,1,6.45-9.74c.31,3.12.63,6.23.94,9.35a33.79,33.79,0,0,0,8.31-22.76c.21,1.12.39,2.25.55,3.38.05.34.09.69.14,1,.1.8.19,1.6.26,2.41,0,.38.07.76.1,1.15.06.82.1,1.65.14,2.47,0,.33,0,.65,0,1,0,1.15,0,2.3,0,3.46h0a71.24,71.24,0,0,1-.76,8.87,41.56,41.56,0,0,1,9.49-7.51l.21-.12q1.14-.65,2.31-1.23l.59-.26c.67-.32,1.33-.63,2-.9.39-.17.8-.3,1.2-.45s1-.38,1.49-.54c.91-.3,1.84-.56,2.77-.79a11.7,11.7,0,0,0-1.14.81l-.24.2a11.7,11.7,0,0,0-1,1h0A14.16,14.16,0,0,0,298,425a1.34,1.34,0,0,0-.11.14,13,13,0,0,0-.83,1.26h0a14.61,14.61,0,0,0-1.91,8.94h0c0,.32.08.63.14.95l1.62.2a22.37,22.37,0,0,0,5.25-9.4,13.77,13.77,0,0,1,.48,1.63c0,.14.07.27.1.41.11.54.21,1.08.28,1.62v0c.07.58.1,1.16.12,1.75v.3c0,.57,0,1.15-.06,1.72h0a20,20,0,0,1-.41,2.67q11.91,1.56,23.82,3.47l.21,0q3.78.62,7.55,1.26l.82.14c2.31.4,4.62.8,6.93,1.22l1.52.29q3.11.57,6.2,1.17c.86.16,1.72.34,2.58.51,1.71.34,3.42.67,5.12,1q3.84.8,7.67,1.63c8.39-.73,15.36.22,24-4.48,7.2-3.93,13.55-9.31,19.86-14.65-.32.92-.66,1.82-1,2.72A82.34,82.34,0,0,1,394,455l3.28.91A33.8,33.8,0,0,0,409.87,445c0,.6,0,1.2-.08,1.79a.17.17,0,0,0,0,.07c0,.57-.12,1.14-.22,1.71h0a23.87,23.87,0,0,1-3.95,9.74l4.08,1.23a34.87,34.87,0,0,0,19.36-24.8c.1.56.17,1.12.23,1.67,0,.26,0,.52.06.78s0,.55.05.82,0,.7,0,1v.48c0,.41,0,.82,0,1.23h0c-.47,7.84-4.19,15.44-8.2,22.48l1.89.63a144.12,144.12,0,0,1,13.32-7q-2.55,4.93-5.11,9.87l.09,0c34.31-7.11,65.59-18,83.56-34.14C553.74,397.73,567,297,529.89,274.05Z" transform="translate(-23.98 -39.06)"/><path class="cls-13" d="M244.18,423l.39-.33Z" transform="translate(-23.98 -39.06)"/><path class="cls-14" d="M117.7,426.63l.2.51Z" transform="translate(-23.98 -39.06)"/><path class="cls-15" d="M117,424.68c0,.16.11.31.16.46C117.12,425,117.06,424.84,117,424.68Z" transform="translate(-23.98 -39.06)"/><path class="cls-16" d="M409.78,446.88c0,.57-.12,1.14-.22,1.71C409.66,448,409.73,447.45,409.78,446.88Z" transform="translate(-23.98 -39.06)"/><path class="cls-17" d="M242.82,411.76c0,.37.07.75.1,1.12C242.89,412.51,242.86,412.13,242.82,411.76Z" transform="translate(-23.98 -39.06)"/><path class="cls-18" d="M114.51,406.94l0,.2Z" transform="translate(-23.98 -39.06)"/><path class="cls-19" d="M409.87,445c0,.6,0,1.2-.08,1.79C409.84,446.22,409.87,445.62,409.87,445Z" transform="translate(-23.98 -39.06)"/><path class="cls-20" d="M114.29,408.25a.49.49,0,0,0,0,.12A.49.49,0,0,1,114.29,408.25Z" transform="translate(-23.98 -39.06)"/><path class="cls-21" d="M243,413.43c0,.49,0,1,0,1.47C243,414.41,243,413.92,243,413.43Z" transform="translate(-23.98 -39.06)"/><path class="cls-22" d="M243,415.05c0,.54,0,1.08,0,1.62C243,416.13,243,415.59,243,415.05Z" transform="translate(-23.98 -39.06)"/><path class="cls-23" d="M271.41,412.49c-.38.24-.74.49-1.09.75C270.67,413,271,412.73,271.41,412.49Z" transform="translate(-23.98 -39.06)"/><path class="cls-24" d="M429.28,436.43c0,.26,0,.52.06.78C429.32,437,429.31,436.69,429.28,436.43Z" transform="translate(-23.98 -39.06)"/><path class="cls-25" d="M113.85,409.12c.08-.3.15-.6.23-.89C114,408.52,113.93,408.82,113.85,409.12Z" transform="translate(-23.98 -39.06)"/><path class="cls-26" d="M270,413.52c-.23.18-.45.37-.66.56C269.54,413.89,269.76,413.7,270,413.52Z" transform="translate(-23.98 -39.06)"/><path class="cls-27" d="M268.07,415.39c-.16.2-.32.39-.47.59C267.75,415.78,267.91,415.59,268.07,415.39Z" transform="translate(-23.98 -39.06)"/><path class="cls-28" d="M335.06,442.11c2.31.4,4.62.8,6.93,1.22C339.68,442.91,337.37,442.51,335.06,442.11Z" transform="translate(-23.98 -39.06)"/><path class="cls-29" d="M157.54,418.18q.06-.8.15-1.59Q157.6,417.39,157.54,418.18Z" transform="translate(-23.98 -39.06)"/><path class="cls-30" d="M112.75,414.58c.06-.44.14-.86.21-1.29C112.89,413.72,112.81,414.14,112.75,414.58Z" transform="translate(-23.98 -39.06)"/><path class="cls-31" d="M129.6,428.72q5.61-.11,11.47-.18Q135.2,428.61,129.6,428.72Z" transform="translate(-23.98 -39.06)"/><path class="cls-32" d="M343.51,443.62q3.11.57,6.2,1.17Q346.62,444.19,343.51,443.62Z" transform="translate(-23.98 -39.06)"/><path class="cls-33" d="M124.09,428.84l5.32-.11Z" transform="translate(-23.98 -39.06)"/><path class="cls-34" d="M242.23,411.66v0Z" transform="translate(-23.98 -39.06)"/><path class="cls-35" d="M113.22,411.87q.11-.56.24-1.11Q113.33,411.32,113.22,411.87Z" transform="translate(-23.98 -39.06)"/><path class="cls-36" d="M240.19,408.91c0,.25,0,.49,0,.73C240.2,409.4,240.19,409.16,240.19,408.91Z" transform="translate(-23.98 -39.06)"/><path class="cls-37" d="M352.29,445.3c1.71.34,3.42.67,5.12,1C355.71,446,354,445.64,352.29,445.3Z" transform="translate(-23.98 -39.06)"/><path class="cls-38" d="M114.72,416.15l0,.21Z" transform="translate(-23.98 -39.06)"/><path class="cls-39" d="M247.94,419c.13-.17.25-.35.38-.53C248.19,418.68,248.07,418.86,247.94,419Z" transform="translate(-23.98 -39.06)"/><path class="cls-40" d="M258.38,422.78c.72-.72,1.45-1.42,2.2-2.11C259.83,421.36,259.1,422.06,258.38,422.78Z" transform="translate(-23.98 -39.06)"/><path class="cls-41" d="M250.14,415.44l.3-.64Z" transform="translate(-23.98 -39.06)"/><path class="cls-42" d="M261,420.26q1-.92,2.07-1.8Q262.06,419.35,261,420.26Z" transform="translate(-23.98 -39.06)"/><path class="cls-43" d="M251.25,412.84q.13-.36.24-.72Q251.39,412.48,251.25,412.84Z" transform="translate(-23.98 -39.06)"/><path class="cls-44" d="M247.08,420.12l.39-.48Z" transform="translate(-23.98 -39.06)"/><path class="cls-45" d="M252.52,407.3c0-.47.09-.95.1-1.43C252.61,406.35,252.57,406.83,252.52,407.3Z" transform="translate(-23.98 -39.06)"/><path class="cls-46" d="M255.91,425.35c.73-.8,1.48-1.59,2.25-2.36C257.39,423.76,256.64,424.55,255.91,425.35Z" transform="translate(-23.98 -39.06)"/><path class="cls-47" d="M116.32,422.57c0,.05,0,.1.05.16S116.34,422.62,116.32,422.57Z" transform="translate(-23.98 -39.06)"/><path class="cls-48" d="M115.17,418.35l.06.23Z" transform="translate(-23.98 -39.06)"/><path class="cls-49" d="M249.47,416.69c.12-.2.23-.41.34-.61C249.7,416.28,249.59,416.49,249.47,416.69Z" transform="translate(-23.98 -39.06)"/><path class="cls-50" d="M252.87,408.65c0,.39,0,.78.07,1.17C252.92,409.43,252.9,409,252.87,408.65Z" transform="translate(-23.98 -39.06)"/><path class="cls-51" d="M429.39,438c0,.35,0,.7,0,1C429.41,438.73,429.41,438.38,429.39,438Z" transform="translate(-23.98 -39.06)"/><path class="cls-52" d="M114.39,414.08c0,.12,0,.24,0,.37C114.43,414.32,114.41,414.2,114.39,414.08Z" transform="translate(-23.98 -39.06)"/><path class="cls-53" d="M252.33,408.72c0-.31.09-.63.13-.94C252.42,408.09,252.38,408.41,252.33,408.72Z" transform="translate(-23.98 -39.06)"/><path class="cls-54" d="M250.73,414.16c.1-.22.19-.45.28-.68C250.92,413.71,250.83,413.94,250.73,414.16Z" transform="translate(-23.98 -39.06)"/><path class="cls-55" d="M429.41,439.55c0,.41,0,.82,0,1.23C429.39,440.37,429.4,440,429.41,439.55Z" transform="translate(-23.98 -39.06)"/><path class="cls-56" d="M114.17,409.65v0Z" transform="translate(-23.98 -39.06)"/><path class="cls-57" d="M115.67,420.32l.12.45Z" transform="translate(-23.98 -39.06)"/><path class="cls-58" d="M267.13,415.36c.47-.33.92-.67,1.39-1C268.05,414.69,267.6,415,267.13,415.36Z" transform="translate(-23.98 -39.06)"/><path class="cls-59" d="M263.94,417.8c.6-.49,1.2-1,1.81-1.44C265.14,416.83,264.54,417.31,263.94,417.8Z" transform="translate(-23.98 -39.06)"/><path class="cls-60" d="M246.16,421.15l.41-.43Z" transform="translate(-23.98 -39.06)"/><path class="cls-61" d="M243.17,423.8l.32-.24Z" transform="translate(-23.98 -39.06)"/><path class="cls-62" d="M112.32,418.82c.08-1.18.19-2.35.34-3.51C112.51,416.47,112.4,417.64,112.32,418.82Z" transform="translate(-23.98 -39.06)"/><path class="cls-63" d="M181.56,428.67l5.79.12Z" transform="translate(-23.98 -39.06)"/><path class="cls-64" d="M183.48,415.32c-.3-.57-.61-1.14-.94-1.7C182.87,414.18,183.18,414.75,183.48,415.32Z" transform="translate(-23.98 -39.06)"/><path class="cls-65" d="M293.87,424.57c.67-.32,1.33-.63,2-.9C295.2,423.94,294.54,424.25,293.87,424.57Z" transform="translate(-23.98 -39.06)"/><path class="cls-66" d="M300.21,422.7l-.24.2Z" transform="translate(-23.98 -39.06)"/><path class="cls-67" d="M280.79,409.93c.21,1.12.39,2.25.55,3.38C281.18,412.18,281,411.05,280.79,409.93Z" transform="translate(-23.98 -39.06)"/><path class="cls-68" d="M190.44,401.22l-.2-.34Z" transform="translate(-23.98 -39.06)"/><path class="cls-69" d="M75,393.68h0c.24-.5.51-1,.79-1.43C75.55,392.72,75.28,393.19,75,393.68Z" transform="translate(-23.98 -39.06)"/><path class="cls-70" d="M245.6,421.73l-.41.39Z" transform="translate(-23.98 -39.06)"/><path class="cls-71" d="M240.09,406.68c0,.25,0,.49,0,.73C240.12,407.17,240.11,406.93,240.09,406.68Z" transform="translate(-23.98 -39.06)"/><path class="cls-72" d="M253,414.84c0-1.2,0-2.4,0-3.6C253,412.44,253,413.64,253,414.84Z" transform="translate(-23.98 -39.06)"/><path class="cls-73" d="M248.74,417.88l.36-.56Z" transform="translate(-23.98 -39.06)"/><path class="cls-74" d="M297.09,423.22c.5-.18,1-.38,1.49-.54C298.08,422.84,297.59,423,297.09,423.22Z" transform="translate(-23.98 -39.06)"/><path class="cls-75" d="M76.06,391.91a13,13,0,0,1,1.06-1.38A13,13,0,0,0,76.06,391.91Z" transform="translate(-23.98 -39.06)"/><path class="cls-76" d="M184.33,417l-.15-.3Z" transform="translate(-23.98 -39.06)"/><path class="cls-77" d="M251.69,411.49c.08-.25.14-.51.21-.76C251.83,411,251.77,411.24,251.69,411.49Z" transform="translate(-23.98 -39.06)"/><path class="cls-78" d="M281.48,414.35c.1.8.19,1.6.26,2.41C281.67,416,281.58,415.15,281.48,414.35Z" transform="translate(-23.98 -39.06)"/><path class="cls-79" d="M281.84,417.91c.06.82.11,1.65.14,2.47C281.94,419.56,281.9,418.73,281.84,417.91Z" transform="translate(-23.98 -39.06)"/><path class="cls-80" d="M436.38,456.92l-2.16,4.17q-5.7,2.73-11.16,6l-1.89-.64c.5-.88,1-1.76,1.48-2.65l.41.13-1.89-.63c4-7,7.73-14.64,8.2-22.48a25.71,25.71,0,0,0-.32-2.87,34.87,34.87,0,0,1-19.36,24.8l-4.08-1.23a22.45,22.45,0,0,0,1.6-2.67l2.48.75-4.08-1.23a23.87,23.87,0,0,0,3.95-9.74,33.79,33.79,0,0,1-12.24,10.5l-3.28-.91c.71-.84,1.4-1.71,2.08-2.58l1.2.34L394,455a82.34,82.34,0,0,0,13.88-23.49c-.26.65-.52,1.3-.79,1.95-5.72,4.83-11.55,9.58-18.06,13.13-8.63,4.7-15.6,3.75-24,4.48-20.49-4.47-41.47-8-62.42-10.74a19,19,0,0,0,.43-3.09q11.7,1.55,23.39,3.41-11.89-1.9-23.82-3.47a20,20,0,0,0,.41-2.67,17.36,17.36,0,0,0-.92-4.31,22.37,22.37,0,0,1-5.25,9.4l-1.62-.2a13.42,13.42,0,0,1-.14-4.1,14.61,14.61,0,0,1,1.91-8.94,41.5,41.5,0,0,0-15.78,10.45c.18-1.19.31-2.39.43-3.59a42,42,0,0,1,9.06-7.07,41.56,41.56,0,0,0-9.49,7.51,54.38,54.38,0,0,0-.48-20.61,33.79,33.79,0,0,1-8.31,22.76c-.31-3.12-.63-6.23-.94-9.35a41.22,41.22,0,0,0-6.45,9.74l-2.21-.2c0-1,.11-2.09.2-3.13l2,.18-2.21-.2a37.36,37.36,0,0,1,2.51-13.09A73.62,73.62,0,0,0,250.56,435h-.14c.42-1.45.77-2.91,1.09-4.39q2.06-2.7,4.34-5.21a73,73,0,0,0-5.29,6.46h-.14a66.46,66.46,0,0,0,2.59-17c0-1.95-.16-3.9-.39-5.84a23.51,23.51,0,0,1-11.4,19.21,26.25,26.25,0,0,0,1.14-3.86c-.37.24-.75.48-1.14.7a27.6,27.6,0,0,0,1.75-8.4,27.25,27.25,0,0,0-.42-3.49,13.35,13.35,0,0,1-2.8,6.57c.17-1.2.27-2.41.35-3.62-.12.16-.23.32-.35.47.22-1.61.37-3.23.43-4.86a47,47,0,0,0-1.65-11.13c-2.94,12-8.55,22-14.89,32.33l-.21.34q-8.24-.42-16.31-.74c-1.29-11.08-6.75-21.71-15.17-28.61A55.27,55.27,0,0,1,198,429.08h-.1c.06,1.05.1,2.11.1,3.16l-4-.12a87.81,87.81,0,0,0-8.22-11.61,54.29,54.29,0,0,1,2.55,8.31h-.81c.3,1.05.57,2.1.81,3.16q-6.49-.15-12.83-.23a42.46,42.46,0,0,1-1.77-5c-2.12-7.32-2.48-15-2.83-22.69a33.13,33.13,0,0,0-2.68,24.41h-.66c.18,1.06.39,2.11.66,3.15h-1.64A122.1,122.1,0,0,1,158,417.71a31.93,31.93,0,0,0-.46,4.15,33.31,33.31,0,0,0,1,6.59h-.64a30.83,30.83,0,0,0,.64,3.15h-6c-2.44-2.56-4.79-5.21-7-8-3.32-4.12-7.23-8.84-12-9.69h0a70.85,70.85,0,0,1,9.18,14.59l-1.53,0c.55,1,1.07,2.07,1.53,3.13q-12.56.13-24,.46c-2.62-6.52-4.83-14.15-4.4-19.89h0c0-.39,0-.76,0-1.13A51.87,51.87,0,0,0,112.23,424c0-.7,0-1.4,0-2.09a57.5,57.5,0,0,0,.38,7.3h-.21a94.42,94.42,0,0,0-15.17-29.08,94.61,94.61,0,0,1,15.09,28.84c.07,1.13.16,2.26.29,3.39h-.21A93.3,93.3,0,0,0,95.4,401a89.23,89.23,0,0,1,6,28.53h-.22c0,.56.09,1.11.13,1.67,16.74,25.36,47.39,46.69,198.85,47.78,32.09.23,84.44-2.51,131.16-12.19l-.09,0Q433.84,461.86,436.38,456.92Z" transform="translate(-23.98 -39.06)"/><path class="cls-81" d="M157.54,418.27a32.89,32.89,0,0,0,0,3.58A32.89,32.89,0,0,1,157.54,418.27Z" transform="translate(-23.98 -39.06)"/><path class="cls-82" d="M239.9,404.54c0,.06,0,.12,0,.18S239.91,404.6,239.9,404.54Z" transform="translate(-23.98 -39.06)"/><path class="cls-83" d="M239.05,399.56c0,.22.09.43.14.64C239.14,400,239.1,399.78,239.05,399.56Z" transform="translate(-23.98 -39.06)"/><path class="cls-84" d="M252.05,410.12c.07-.28.12-.55.17-.83C252.17,409.57,252.12,409.84,252.05,410.12Z" transform="translate(-23.98 -39.06)"/><path class="cls-85" d="M291,426.06q1.14-.65,2.31-1.23Q292.11,425.42,291,426.06Z" transform="translate(-23.98 -39.06)"/><path class="cls-86" d="M239.49,401.76c0,.22.08.44.11.65C239.57,402.2,239.53,402,239.49,401.76Z" transform="translate(-23.98 -39.06)"/><path class="cls-87" d="M282,421.36c0,1.15,0,2.3,0,3.46C282.06,423.66,282.05,422.51,282,421.36Z" transform="translate(-23.98 -39.06)"/><path class="cls-88" d="M77.12,390.53c-.07.68-.11,1.37-.15,2.05C77,391.9,77.05,391.21,77.12,390.53Z" transform="translate(-23.98 -39.06)"/><path class="cls-89" d="M95.71,398.21c.43.52.86,1.05,1.28,1.59C96.57,399.26,96.14,398.73,95.71,398.21Z" transform="translate(-23.98 -39.06)"/><path class="cls-90" d="M112.22,421.35c0-.66,0-1.31.07-2C112.25,420,112.23,420.69,112.22,421.35Z" transform="translate(-23.98 -39.06)"/><path class="cls-91" d="M303.13,432.82c0,.57,0,1.15-.06,1.72C303.12,434,303.13,433.39,303.13,432.82Z" transform="translate(-23.98 -39.06)"/><path class="cls-92" d="M94.15,396.4c.34.38.67.77,1,1.15C94.82,397.17,94.49,396.78,94.15,396.4Z" transform="translate(-23.98 -39.06)"/><path class="cls-93" d="M167.2,415a41.33,41.33,0,0,1,.63-4.58A39.09,39.09,0,0,0,167.2,415Z" transform="translate(-23.98 -39.06)"/><path class="cls-94" d="M167.08,420.09c0-.82,0-1.64,0-2.45C167,418.45,167.05,419.27,167.08,420.09Z" transform="translate(-23.98 -39.06)"/><path class="cls-95" d="M167.06,417.56c0-.75.06-1.5.11-2.25C167.12,416.06,167.08,416.81,167.06,417.56Z" transform="translate(-23.98 -39.06)"/><path class="cls-96" d="M157.71,416.35c.07-.6.16-1.2.27-1.79C157.87,415.15,157.78,415.75,157.71,416.35Z" transform="translate(-23.98 -39.06)"/><path class="cls-97" d="M265.93,418.63c-.19.38-.37.76-.54,1.16C265.56,419.39,265.74,419,265.93,418.63Z" transform="translate(-23.98 -39.06)"/><path class="cls-98" d="M298.92,423.87h0Z" transform="translate(-23.98 -39.06)"/><path class="cls-99" d="M267.27,416.42l-.42.63Z" transform="translate(-23.98 -39.06)"/><path class="cls-100" d="M326.69,440.71q3.78.62,7.55,1.26Q330.48,441.33,326.69,440.71Z" transform="translate(-23.98 -39.06)"/><path class="cls-101" d="M167.92,410c.13-.64.28-1.28.44-1.91C168.2,408.72,168.05,409.36,167.92,410Z" transform="translate(-23.98 -39.06)"/><path class="cls-102" d="M266.56,417.5c-.14.23-.27.47-.4.71C266.29,418,266.42,417.73,266.56,417.5Z" transform="translate(-23.98 -39.06)"/><path class="cls-103" d="M268.42,415c.17-.19.36-.37.54-.56C268.78,414.62,268.59,414.8,268.42,415Z" transform="translate(-23.98 -39.06)"/><path class="cls-104" d="M298,425a1.34,1.34,0,0,0-.11.14A1.34,1.34,0,0,1,298,425Z" transform="translate(-23.98 -39.06)"/><path class="cls-105" d="M76.26,394.82l.62.6c0-.5,0-1,0-1.48C76.68,394.22,76.47,394.52,76.26,394.82Z" transform="translate(-23.98 -39.06)"/><path class="cls-106" d="M302.15,427.08a13.77,13.77,0,0,1,.48,1.63A13.77,13.77,0,0,0,302.15,427.08Z" transform="translate(-23.98 -39.06)"/><path class="cls-107" d="M303,430.77c.07.58.1,1.16.12,1.75C303.11,431.93,303.08,431.35,303,430.77Z" transform="translate(-23.98 -39.06)"/><path class="cls-108" d="M168.45,407.75c.19-.72.4-1.44.64-2.14C168.85,406.31,168.64,407,168.45,407.75Z" transform="translate(-23.98 -39.06)"/><path class="cls-109" d="M302.73,429.12c.11.54.21,1.08.28,1.62C302.94,430.2,302.84,429.66,302.73,429.12Z" transform="translate(-23.98 -39.06)"/><path class="cls-110" d="M170.07,402.94c.28-.68.57-1.35.89-2C170.64,401.59,170.35,402.26,170.07,402.94Z" transform="translate(-23.98 -39.06)"/><path class="cls-111" d="M169.23,405.19c.19-.57.4-1.13.62-1.69C169.63,404.06,169.42,404.62,169.23,405.19Z" transform="translate(-23.98 -39.06)"/><path class="cls-112" d="M281.27,436.84a41.5,41.5,0,0,1,15.78-10.45h0a13,13,0,0,1,.83-1.26A1.34,1.34,0,0,1,298,425a14.16,14.16,0,0,1,.93-1.12h0a11.7,11.7,0,0,1,1-1l.24-.2a11.7,11.7,0,0,1,1.14-.81c-.93.23-1.86.49-2.77.79-.5.16-1,.36-1.49.54s-.81.28-1.2.45c-.69.27-1.35.58-2,.9l-.59.26q-1.17.59-2.31,1.23l-.21.12a42,42,0,0,0-9.06,7.07C281.58,434.45,281.45,435.65,281.27,436.84Z" transform="translate(-23.98 -39.06)"/><path class="cls-112" d="M250.42,435h.14a73.62,73.62,0,0,1,14.83-15.23h0c.17-.4.35-.78.54-1.16.07-.14.15-.28.23-.42s.26-.48.4-.71.19-.3.29-.45l.42-.63.33-.44c.15-.2.31-.39.47-.59l.35-.4c.17-.19.36-.37.54-.56s.24-.24.37-.35.43-.38.66-.56l.33-.28c.35-.26.71-.51,1.09-.75-1,.6-1.94,1.23-2.89,1.88-.47.32-.92.66-1.39,1l-1.38,1c-.61.47-1.21.95-1.81,1.44l-.83.66q-1,.89-2.07,1.8l-.46.41c-.75.69-1.48,1.39-2.2,2.11l-.22.21c-.77.77-1.52,1.56-2.25,2.36l-.06.06q-2.28,2.5-4.34,5.21C251.19,432.1,250.84,433.56,250.42,435Z" transform="translate(-23.98 -39.06)"/><path class="cls-112" d="M262.88,436l2.21.2a41.22,41.22,0,0,1,6.45-9.74c.31,3.12.63,6.23.94,9.35a33.79,33.79,0,0,0,8.31-22.76A71.18,71.18,0,0,1,282,424.82h0c0-1.16,0-2.31,0-3.46,0-.33,0-.65,0-1,0-.82-.08-1.65-.14-2.47,0-.39-.06-.77-.1-1.15-.07-.81-.16-1.61-.26-2.41-.05-.35-.09-.7-.14-1-.16-1.13-.34-2.26-.55-3.38a33.79,33.79,0,0,1-8.31,22.76c-.31-3.12-.63-6.23-.94-9.35a41.22,41.22,0,0,0-6.45,9.74l-2-.18C263,433.94,262.92,435,262.88,436Z" transform="translate(-23.98 -39.06)"/><path class="cls-112" d="M207.12,432.54q8.07.31,16.31.74l.21-.34c6.34-10.3,12-20.35,14.89-32.33a47,47,0,0,1,1.65,11.13h0c0-.7,0-1.4,0-2.1,0-.24,0-.48,0-.73q0-.75-.06-1.5c0-.24,0-.48,0-.73-.05-.65-.1-1.31-.17-2,0-.06,0-.12,0-.18-.08-.71-.19-1.42-.3-2.13,0-.21-.07-.43-.11-.65q-.13-.78-.3-1.56c-.05-.21-.09-.42-.14-.64-.16-.7-.33-1.4-.52-2.1-2.94,12-8.55,22-14.89,32.33l-.21.34q-8.24-.44-16.31-.74c-1.45-12.49-8.2-24.42-18.51-31.06.57.83,1.11,1.69,1.63,2.55l.2.34c.53.89,1,1.79,1.5,2.71h0C200.37,410.83,205.83,421.46,207.12,432.54Z" transform="translate(-23.98 -39.06)"/><path class="cls-112" d="M198,432.23c0-1.05,0-2.11-.1-3.16h0l-3.86-.11a87,87,0,0,0-11.52-15.34c.33.56.64,1.13.94,1.7s.47.93.7,1.39l.15.3c.54,1.14,1,2.31,1.51,3.49h0a87.81,87.81,0,0,1,8.22,11.61Z" transform="translate(-23.98 -39.06)"/><path class="cls-112" d="M252.62,409c.23,1.94.34,3.89.39,5.84h0v0c0-1.2,0-2.4,0-3.6,0-.48,0-.95-.05-1.42s0-.78-.07-1.17c-.06-.93-.14-1.86-.25-2.78,0,.48-.05,1-.1,1.43,0,.16,0,.32-.06.48,0,.31-.08.63-.13.94s-.07.38-.11.57-.1.55-.17.83-.1.4-.15.61-.13.51-.21.76-.13.42-.2.63-.15.48-.24.72l-.24.64c-.09.23-.18.46-.28.68s-.19.43-.29.64l-.3.64-.33.64c-.11.2-.22.41-.34.61l-.37.63-.36.56-.42.62c-.13.18-.25.36-.38.53l-.47.61-.39.48-.51.6-.41.43c-.18.2-.37.39-.56.58l-.41.39-.62.56-.39.33c-.23.18-.45.37-.69.55l-.32.24c-.27.19-.53.39-.81.57h0a26.25,26.25,0,0,1-1.14,3.86A23.51,23.51,0,0,0,252.62,409Z" transform="translate(-23.98 -39.06)"/><path class="cls-112" d="M421.17,466.41l1.89.64q5.46-3.24,11.16-6l2.16-4.17a144.12,144.12,0,0,0-13.32,7l-.41-.13C422.16,464.65,421.67,465.53,421.17,466.41Z" transform="translate(-23.98 -39.06)"/><path class="cls-112" d="M295.28,439.43l1.62.2a22.37,22.37,0,0,0,5.25-9.4,17.36,17.36,0,0,1,.92,4.31h0c.05-.57.06-1.15.06-1.72v-.3c0-.59-.05-1.17-.12-1.75v0c-.07-.54-.17-1.08-.28-1.62,0-.14-.06-.27-.1-.41a13.77,13.77,0,0,0-.48-1.63,22.37,22.37,0,0,1-5.25,9.4l-1.62-.2c-.06-.32-.11-.63-.14-.95h0A13.42,13.42,0,0,0,295.28,439.43Z" transform="translate(-23.98 -39.06)"/><path class="cls-112" d="M405.61,461.48l4.08,1.23a34.87,34.87,0,0,0,19.36-24.8,25.71,25.71,0,0,1,.32,2.87h0c0-.41,0-.82,0-1.23v-.48c0-.34,0-.69,0-1s0-.54-.05-.82,0-.52-.06-.78c-.06-.55-.13-1.11-.23-1.67a34.87,34.87,0,0,1-19.36,24.8l-2.48-.75A22.45,22.45,0,0,1,405.61,461.48Z" transform="translate(-23.98 -39.06)"/><path class="cls-112" d="M394,458.18l3.28.91a33.79,33.79,0,0,0,12.24-10.5h0c.1-.57.17-1.14.22-1.71a.17.17,0,0,1,0-.07c0-.59.08-1.19.08-1.79a33.8,33.8,0,0,1-12.55,10.92l-1.2-.34C395.44,456.47,394.75,457.34,394,458.18Z" transform="translate(-23.98 -39.06)"/><path class="cls-112" d="M302.66,440.36c20.95,2.74,41.93,6.27,62.42,10.74,8.39-.73,15.36.22,24-4.48,6.51-3.55,12.34-8.3,18.06-13.13.27-.65.53-1.3.79-1.95.35-.9.69-1.8,1-2.72-6.31,5.34-12.66,10.72-19.86,14.65-8.63,4.7-15.6,3.75-24,4.48q-3.82-.84-7.67-1.63c-1.7-.35-3.41-.68-5.12-1-.86-.17-1.72-.35-2.58-.51q-3.09-.6-6.2-1.17l-1.52-.29c-2.31-.42-4.62-.82-6.93-1.22l-.82-.14q-3.76-.64-7.55-1.26l-.21,0q-11.67-1.87-23.39-3.41A19,19,0,0,1,302.66,440.36Z" transform="translate(-23.98 -39.06)"/><path class="cls-112" d="M242.55,413.18a27.25,27.25,0,0,1,.42,3.49h0c0-.54,0-1.08,0-1.62v-.15c0-.49,0-1,0-1.47,0-.19,0-.37,0-.55,0-.37-.06-.75-.1-1.12-.07-.58-.16-1.16-.27-1.73a12.73,12.73,0,0,1-.32,1.61v0a13.45,13.45,0,0,1-2.13,4.43v0c-.08,1.21-.18,2.42-.35,3.62A13.35,13.35,0,0,0,242.55,413.18Z" transform="translate(-23.98 -39.06)"/><path class="cls-112" d="M173.79,426.77a42.46,42.46,0,0,0,1.77,5q6.33.07,12.83.23c-.24-1.06-.51-2.11-.81-3.16h-.23l-5.79-.12-6-.09a42.46,42.46,0,0,1-1.77-5c-2.12-7.32-2.48-15.05-2.83-22.69-.32.66-.61,1.33-.89,2-.08.19-.15.37-.22.56-.22.56-.43,1.12-.62,1.69,0,.14-.1.28-.14.42-.24.7-.45,1.42-.64,2.14l-.09.34c-.16.63-.31,1.27-.44,1.91l-.09.44a41.33,41.33,0,0,0-.63,4.58l0,.29c0,.75-.09,1.5-.11,2.25v.08c0,.81,0,1.63,0,2.45h0a40.66,40.66,0,0,1,3.88-16C171.31,411.72,171.67,419.45,173.79,426.77Z" transform="translate(-23.98 -39.06)"/><path class="cls-112" d="M76.91,393.94c0-.45,0-.91.06-1.36,0-.68.08-1.37.15-2.05a13,13,0,0,0-1.06,1.38c-.07.12-.15.24-.23.35-.28.46-.55.93-.79,1.43l1.22,1.13c.21-.3.42-.6.65-.88Z" transform="translate(-23.98 -39.06)"/><path class="cls-112" d="M118.61,432.13q11.42-.31,24-.46c-.46-1.06-1-2.1-1.53-3.13h0q-5.87.07-11.47.18h-.19l-5.32.11-5.48.14c-.24-.6-.48-1.22-.71-1.84l-.2-.51c-.18-.5-.36-1-.53-1.49,0-.15-.11-.3-.16-.46-.22-.65-.44-1.3-.64-1.95,0-.06,0-.11-.05-.16-.18-.6-.36-1.2-.53-1.8l-.12-.45c-.16-.58-.3-1.16-.44-1.74l-.06-.23c-.15-.67-.29-1.33-.42-2l0-.21c-.11-.57-.2-1.14-.28-1.7,0-.13,0-.25,0-.37-.08-.62-.14-1.24-.18-1.83h0C113.78,418,116,425.61,118.61,432.13Z" transform="translate(-23.98 -39.06)"/><path class="cls-112" d="M88.17,409.25l.27.41-.21-1.14Z" transform="translate(-23.98 -39.06)"/><path class="cls-112" d="M101.22,429.56l-.92,0c.34.54.69,1.09,1,1.63,0-.56-.09-1.11-.13-1.67Z" transform="translate(-23.98 -39.06)"/><path class="cls-112" d="M166.64,431.63h1.64c-.27-1-.48-2.09-.66-3.15h-1A122.1,122.1,0,0,1,158,414.56c-.11.59-.2,1.19-.27,1.79,0,.08,0,.16,0,.24q-.09.8-.15,1.59v.09a32.89,32.89,0,0,0,0,3.58h0a31.93,31.93,0,0,1,.46-4.15A122.1,122.1,0,0,0,166.64,431.63Z" transform="translate(-23.98 -39.06)"/><path class="cls-112" d="M145.46,423.63c2.22,2.76,4.57,5.41,7,8h6a30.83,30.83,0,0,1-.64-3.15h-5.4c-2.44-2.56-4.79-5.21-7-8-3.88-4.82-8.57-10.48-14.57-9.78.85,1.07,1.69,2.15,2.53,3.23h0C138.23,414.79,142.14,419.51,145.46,423.63Z" transform="translate(-23.98 -39.06)"/><path class="cls-112" d="M114.16,411.12h0c0-.49,0-1,0-1.45v0c0-.44.06-.86.11-1.28a.49.49,0,0,1,0-.12c0-.38.11-.75.19-1.11l0-.2a10.51,10.51,0,0,1,.33-1.2c-.27.82-.52,1.65-.76,2.49-.08.29-.15.59-.23.89-.14.54-.27,1.09-.39,1.64q-.13.56-.24,1.11c-.09.47-.18.94-.26,1.42s-.15.85-.21,1.29l-.09.73c-.15,1.16-.26,2.33-.34,3.51l0,.56c0,.66-.06,1.31-.07,2,0,.17,0,.34,0,.51,0,.69,0,1.39,0,2.09A51.87,51.87,0,0,1,114.16,411.12Z" transform="translate(-23.98 -39.06)"/><path class="cls-112" d="M112.59,432.31c-.13-1.13-.22-2.26-.29-3.39a94.61,94.61,0,0,0-15.09-28.84c-.07-.1-.15-.19-.22-.28-.42-.54-.85-1.07-1.28-1.59l-.57-.66c-.32-.38-.65-.77-1-1.15-.52-.59-1.06-1.18-1.6-1.75,1,2,1.94,4.15,2.79,6.3l.06.07a93.3,93.3,0,0,1,17,31.29Z" transform="translate(-23.98 -39.06)"/><path class="cls-113" d="M537.92,281.08c-84.41-1-183.64-1.33-281.38.16-71.63,1.1-193.44,1.89-230.48,2.11-2.56,16.6-3.67,38.23,2.23,58.06H551.52C553.07,317,549,294.25,537.92,281.08Z" transform="translate(-23.98 -39.06)"/><path class="cls-114" d="M409.34,210.85c.76,23.37,9.48,38.24,29.62,33,14.44,3.09,20.77-9.27,21.91-14.81,9.11-12.17,7.72-50.67.5-58-3.23-8.11-5.32-20.86-21.89-22.08C416.55,141.32,401.93,177.24,409.34,210.85Z" transform="translate(-23.98 -39.06)"/><path class="cls-9" d="M461.06,211.08c-4.22,2.19-8.42-.72-10.32,6.15-2.34,8.43-6.86,3.78-9.37,8-3.55,5.92-9.37,6.7-15.45,2.83s-9.62,1.8-13.34,2.12c4.2,11.47,12.63,17.27,26.38,13.72,14.44,3.09,20.77-9.27,21.91-14.81,3.79-5.07,5.76-14.7,6.25-24.75C465.62,207.07,463.77,209.67,461.06,211.08Z" transform="translate(-23.98 -39.06)"/><path class="cls-7" d="M435.73,225.53c-.31-4-1.33-14.29-5.69-16.61,4.36,1.17,6.12,4.31,7,5.41.55-2.63-.19-14.79.38-18.16a106.18,106.18,0,0,1,2.47,23.57c1-2.33,4.46-4.44,8.17-4.83-10,4-7.72,27.43-7.75,27.54l2.28,46.84h-8.33s.75-44.64.74-44.7C434.84,242.46,436.13,230.53,435.73,225.53Z" transform="translate(-23.98 -39.06)"/><path class="cls-115" d="M418.46,222.35c1.1,1,2.17,2.11,3.24,3.18.5.5,1,1,1.54,1.5a.58.58,0,0,1,.11.13c.08,0,.16.1.27.17.59.39,1.17.81,1.77,1.19a1.49,1.49,0,0,1,.25.18l.41.13a34.12,34.12,0,0,0,3.43.94c.63.14,1.27.25,1.9.39l.34.08h0c1.24.15,2.48.3,3.73.38a76,76,0,0,0,8-.14h.17l.23-.06c.65-.15,1.31-.28,2-.45.83-.23,1.64-.51,2.45-.82a8.33,8.33,0,0,0,1-.5c.5-.35,1-.69,1.5-1.05,1.4-1,2.77-2,4.11-3.12,3.5-2.87,7.45-8,11.23-12.43,2-16.07.38-35.82-4.56-40.93-3.24-8.25-5.33-21.23-21.94-22.47-23-7.8-37.62,28.76-30.2,63C409.46,214.39,416.1,220.13,418.46,222.35Z" transform="translate(-23.98 -39.06)"/><path class="cls-7" d="M435.23,226.6a39.4,39.4,0,0,1,.06,4c1.61.08,3.21,0,4.81,0,.75-6.25,2.73-12.79,7.6-14.74-3.74.39-7.25,2.53-8.25,4.87A107.2,107.2,0,0,0,437,197c-.58,3.39.17,15.67-.38,18.33-.91-1.1-2.69-4.27-7.1-5.46C433.89,212.16,434.91,222.59,435.23,226.6Z" transform="translate(-23.98 -39.06)"/><path class="cls-116" d="M193.92,269.56c-5.59,3.2-9.24,5-11.25,5.29-1.8.26-5.45-1.2-5.42-6.4.05-8,3.75-20.88,8.21-28.14A16.57,16.57,0,0,1,191.9,234c.69-.34,1-.13,1.12.3a35.21,35.21,0,0,1,.66,5.28,12.51,12.51,0,0,1,5.06,1.15c-.1-3.12-.47-7.73-1.74-9.71a4.78,4.78,0,0,0-4.19-2.16c-3.75,0-8.32,3.56-11.64,9-5.69,9.27-8.58,22-8.92,30.47a11.17,11.17,0,0,0,3.54,8.91,9.94,9.94,0,0,0,7.48,2.54c1.69-.26,8.26-2.93,15.14-7.06-.35-.23-3.41-2.3-4.49-3.09" transform="translate(-23.98 -39.06)"/><path class="cls-116" d="M206.39,241.37a9.7,9.7,0,0,0-10.08,9.24,3.7,3.7,0,0,0,3.61,3.86c3.14,0,4.05-3.38,3.51-5.14h0l-2.07,1.6c-.31-3.53,3.38-4.67,5-4.67h0a5.36,5.36,0,0,1,5.57,5.45c0,3.33-3.64,8-10.22,12.81l4.44,2.84c6.88-5.42,10.78-10.65,10.78-15.65,0-6.72-5.45-10.34-10.58-10.34" transform="translate(-23.98 -39.06)"/><path class="cls-116" d="M195.65,268.55c-8.13-5.78-12.77-11.54-12.77-16.28a10.75,10.75,0,0,1,10.58-10.9,10.57,10.57,0,0,1,4.84,1.14,11.92,11.92,0,0,0-3,4.06,5.61,5.61,0,0,0-1.85-.31,5.81,5.81,0,0,0-5.58,6c0,4.58,9.32,11.89,16.74,16.28a89,89,0,0,0,12.11,6.19c1.67.58,5.86-.78,5.86-6.29,0-9.31-3.75-20.88-8.21-28.14A16.56,16.56,0,0,0,208,234c-.7-.34-1-.13-1.13.3a35.21,35.21,0,0,0-.66,5.28,12.51,12.51,0,0,0-5.06,1.15c.1-3.12.47-7.73,1.74-9.71a4.8,4.8,0,0,1,4.19-2.16c3.75,0,8.32,3.56,11.64,9,5.69,9.27,8.58,22,8.92,30.47a11.14,11.14,0,0,1-3.54,8.91c-1.84,1.66-5.21,3.07-7.48,2.54-3.67-.86-14.83-6.49-20.92-11.16" transform="translate(-23.98 -39.06)"/><path class="cls-117" d="M236.26,246.6h9.34c4.34,0,6.7,2.93,6.7,6.43s-2.4,6.37-6.7,6.37h-5.09v7.15h-4.25Zm8.77,3.65h-4.52v5.5H245a2.76,2.76,0,1,0,0-5.5" transform="translate(-23.98 -39.06)"/><path class="cls-117" d="M265,263.11H256l-1.25,3.44h-4.67l7.72-20h5.32l7.69,20h-4.64Zm-7.78-3.68h6.61l-3.29-9.15Z" transform="translate(-23.98 -39.06)"/><polygon class="cls-117" points="262.35 219.09 252.93 219.09 252.93 227.47 248.68 227.47 248.68 207.51 252.93 207.51 252.93 215.35 262.35 215.35 262.35 207.51 266.63 207.51 266.63 227.47 262.35 227.47 262.35 219.09"/><rect class="cls-117" x="275.89" y="207.52" width="4.25" height="19.95"/><path class="cls-117" d="M316.68,257.79c0-2-1-2.69-2.66-2.69a4.12,4.12,0,0,0-3.29,1.71v9.72h-3.8V252.08h3.8V254a6.61,6.61,0,0,1,5.06-2.25c3.17,0,4.69,1.8,4.69,4.61v10.2h-3.8Z" transform="translate(-23.98 -39.06)"/><path class="cls-117" d="M322.39,247.68a2.28,2.28,0,1,1,2.28,2.28,2.3,2.3,0,0,1-2.28-2.28m.39,4.4h3.8v14.45h-3.8Z" transform="translate(-23.98 -39.06)"/><path class="cls-117" d="M330.77,262.94V255.4h-2.39v-3.32h2.39v-4h3.83v4h2.93v3.32H334.6v6.52c0,.9.48,1.59,1.32,1.59a2,2,0,0,0,1.31-.42L338,266a4.67,4.67,0,0,1-3.17.93c-2.66,0-4.1-1.38-4.1-3.95" transform="translate(-23.98 -39.06)"/><path class="cls-117" d="M339.41,247.68a2.27,2.27,0,1,1,2.27,2.28,2.29,2.29,0,0,1-2.27-2.28m.39,4.4h3.79v14.45H339.8Z" transform="translate(-23.98 -39.06)"/><path class="cls-117" d="M354.69,265a6,6,0,0,1-4.57,1.86,4.82,4.82,0,0,1-5-4.79c0-3.38,2.72-4.6,5-4.6a5.81,5.81,0,0,1,4.57,1.76v-2c0-1.47-1.25-2.43-3.17-2.43a6.09,6.09,0,0,0-4.22,1.71L345.87,254a9.45,9.45,0,0,1,6.31-2.28c3.29,0,6.31,1.32,6.31,5.48v9.33h-3.8Zm0-3.77a3.81,3.81,0,0,0-3.05-1.25c-1.49,0-2.72.81-2.72,2.18s1.23,2.13,2.72,2.13a3.79,3.79,0,0,0,3.05-1.26Z" transform="translate(-23.98 -39.06)"/><path class="cls-117" d="M361.66,262.94V255.4h-2.39v-3.32h2.39v-4h3.83v4h2.93v3.32h-2.93v6.52c0,.9.48,1.59,1.32,1.59a2.07,2.07,0,0,0,1.31-.42l.81,2.87a4.67,4.67,0,0,1-3.17.93c-2.66,0-4.1-1.38-4.1-3.95" transform="translate(-23.98 -39.06)"/><path class="cls-117" d="M370.49,247.68a2.27,2.27,0,1,1,2.27,2.28,2.29,2.29,0,0,1-2.27-2.28m.38,4.4h3.8v14.45h-3.8Z" transform="translate(-23.98 -39.06)"/><polygon class="cls-117" points="351.94 213.02 356.01 213.02 359.78 223.07 363.55 213.02 367.65 213.02 361.85 227.47 357.75 227.47 351.94 213.02"/><path class="cls-117" d="M398.54,251.72c4.31,0,7.24,3.23,7.24,8v.84H395a3.9,3.9,0,0,0,4.16,3.35,5.9,5.9,0,0,0,3.86-1.44l1.67,2.45a8.86,8.86,0,0,1-6,2c-4.4,0-7.72-3-7.72-7.6a7.36,7.36,0,0,1,7.48-7.57M395,257.94h7.12a3.35,3.35,0,0,0-3.56-3.2,3.48,3.48,0,0,0-3.56,3.2" transform="translate(-23.98 -39.06)"/></g></g></svg>