<svg xmlns="http://www.w3.org/2000/svg" xmlns:xlink="http://www.w3.org/1999/xlink" viewBox="0 0 353.79 419.91"><defs><style>.cls-1{fill:none;}.cls-2{isolation:isolate;}.cls-3{clip-path:url(#clip-path);}.cls-4{fill:url(#Blue_2);}.cls-5{fill:#fff3ff;}.cls-6{fill:#cce2ff;}.cls-7,.cls-8{fill:#dde8ff;}.cls-7,.cls-91{opacity:0.55;mix-blend-mode:multiply;}.cls-9{fill:url(#Blue_2-2);}.cls-10{fill:url(#Blue_2-3);}.cls-11{fill:url(#Blue_2-4);}.cls-12{fill:url(#Blue_2-5);}.cls-13{fill:url(#Blue_2-6);}.cls-14{fill:url(#Blue_2-7);}.cls-15{fill:url(#Blue_2-8);}.cls-16{fill:url(#Blue_2-9);}.cls-17{fill:url(#Blue_2-10);}.cls-18{fill:url(#Blue_2-11);}.cls-19{fill:url(#Blue_2-12);}.cls-20{fill:url(#Blue_2-13);}.cls-21{fill:url(#Blue_2-14);}.cls-22{fill:url(#Blue_2-15);}.cls-23{fill:url(#Blue_2-16);}.cls-24{fill:url(#Blue_2-17);}.cls-25{fill:url(#Blue_2-18);}.cls-26{fill:url(#Blue_2-19);}.cls-27{fill:url(#Blue_2-20);}.cls-28{fill:url(#Blue_2-21);}.cls-29{fill:url(#Blue_2-22);}.cls-30{fill:url(#Blue_2-23);}.cls-31{fill:url(#Blue_2-24);}.cls-32{fill:url(#Blue_2-25);}.cls-33{fill:url(#Blue_2-26);}.cls-34{fill:url(#Blue_2-27);}.cls-35{fill:url(#Blue_2-28);}.cls-36{fill:url(#Blue_2-29);}.cls-37{fill:url(#Blue_2-30);}.cls-38{fill:url(#Blue_2-31);}.cls-39{fill:url(#Blue_2-32);}.cls-40{fill:url(#Blue_2-33);}.cls-41{fill:url(#Blue_2-34);}.cls-42{fill:url(#Blue_2-35);}.cls-43{fill:url(#Blue_2-36);}.cls-44{fill:url(#Blue_2-37);}.cls-45{fill:url(#Blue_2-38);}.cls-46{fill:url(#Blue_2-39);}.cls-47{fill:url(#Blue_2-40);}.cls-48{fill:url(#Blue_2-41);}.cls-49{fill:url(#Blue_2-42);}.cls-50{fill:url(#Blue_2-43);}.cls-51{fill:url(#Blue_2-44);}.cls-52{fill:url(#Blue_2-45);}.cls-53{fill:url(#Blue_2-46);}.cls-54{fill:url(#Blue_2-47);}.cls-55{fill:url(#Blue_2-48);}.cls-56{fill:url(#Blue_2-49);}.cls-57{fill:url(#Blue_2-50);}.cls-58{fill:url(#Blue_2-51);}.cls-59{fill:url(#Blue_2-52);}.cls-60{fill:url(#Blue_2-53);}.cls-61{fill:url(#Blue_2-54);}.cls-62{fill:url(#Blue_2-55);}.cls-63{fill:url(#Blue_2-56);}.cls-64{fill:url(#Blue_2-57);}.cls-65{fill:url(#Blue_2-58);}.cls-66{fill:url(#Blue_2-59);}.cls-67{fill:url(#Blue_2-60);}.cls-68{fill:url(#Blue_2-61);}.cls-69{fill:url(#Blue_2-62);}.cls-70{fill:url(#Blue_2-63);}.cls-71{fill:url(#Blue_2-64);}.cls-72{fill:url(#Blue_2-65);}.cls-73{fill:url(#Blue_2-66);}.cls-74{fill:url(#Blue_2-67);}.cls-75{fill:url(#Blue_2-68);}.cls-76{fill:url(#Blue_2-69);}.cls-77{fill:url(#Blue_2-70);}.cls-78{fill:url(#Blue_2-71);}.cls-79{fill:url(#Blue_2-72);}.cls-80{fill:url(#Blue_2-73);}.cls-81{fill:url(#Blue_2-74);}.cls-82{fill:url(#Blue_2-75);}.cls-83{fill:url(#Blue_2-76);}.cls-84{fill:url(#Blue_2-77);}.cls-85{fill:url(#Blue_2-78);}.cls-86{fill:url(#Blue_2-79);}.cls-87{fill:url(#Blue_2-80);}.cls-88{fill:#c0d5f3;}.cls-89{fill:url(#Blue_2-81);}.cls-90,.cls-91{fill:#d1e0ff;}.cls-92{fill:#b9d7ff;}.cls-93{fill:url(#_ÂÁ_Ï_ÌÌ_È_ËÂÌÚ_15);}.cls-94{fill:#8d0034;}.cls-95{fill:#76777a;}</style><clipPath id="clip-path"><rect class="cls-1" width="353.79" height="419.91"/></clipPath><linearGradient id="Blue_2" x1="-47.21" y1="58.64" x2="108.85" y2="58.64" gradientUnits="userSpaceOnUse"><stop offset="0.01" stop-color="#fcf2ff"/><stop offset="0.45" stop-color="#d7e3ff"/><stop offset="1" stop-color="#c2d3ff"/></linearGradient><linearGradient id="Blue_2-2" x1="183.49" y1="250.97" x2="88.42" y2="489.37" xlink:href="#Blue_2"/><linearGradient id="Blue_2-3" x1="127.02" y1="346.17" x2="122.6" y2="491.93" xlink:href="#Blue_2"/><linearGradient id="Blue_2-4" x1="292.91" y1="351.2" x2="288.49" y2="496.96" xlink:href="#Blue_2"/><linearGradient id="Blue_2-5" x1="125.19" y1="346.11" x2="120.77" y2="491.87" xlink:href="#Blue_2"/><linearGradient id="Blue_2-6" x1="293.02" y1="351.2" x2="288.6" y2="496.96" xlink:href="#Blue_2"/><linearGradient id="Blue_2-7" x1="125.37" y1="346.12" x2="120.95" y2="491.88" xlink:href="#Blue_2"/><linearGradient id="Blue_2-8" x1="125.43" y1="346.12" x2="121.01" y2="491.88" xlink:href="#Blue_2"/><linearGradient id="Blue_2-9" x1="153.18" y1="346.96" x2="148.76" y2="492.72" xlink:href="#Blue_2"/><linearGradient id="Blue_2-10" x1="312.2" y1="351.78" x2="307.79" y2="497.54" xlink:href="#Blue_2"/><linearGradient id="Blue_2-11" x1="152" y1="346.92" x2="147.58" y2="492.69" xlink:href="#Blue_2"/><linearGradient id="Blue_2-12" x1="150.23" y1="346.87" x2="145.82" y2="492.63" xlink:href="#Blue_2"/><linearGradient id="Blue_2-13" x1="221.68" y1="349.04" x2="217.26" y2="494.8" xlink:href="#Blue_2"/><linearGradient id="Blue_2-14" x1="40.17" y1="343.54" x2="35.75" y2="489.3" xlink:href="#Blue_2"/><linearGradient id="Blue_2-15" x1="18.25" y1="342.87" x2="13.83" y2="488.63" xlink:href="#Blue_2"/><linearGradient id="Blue_2-16" x1="229.81" y1="349.28" x2="225.39" y2="495.04" xlink:href="#Blue_2"/><linearGradient id="Blue_2-17" x1="9.68" y1="342.61" x2="5.26" y2="488.37" xlink:href="#Blue_2"/><linearGradient id="Blue_2-18" x1="124.53" y1="346.09" x2="121.03" y2="461.56" xlink:href="#Blue_2"/><linearGradient id="Blue_2-19" x1="122.43" y1="346.03" x2="118.01" y2="491.79" xlink:href="#Blue_2"/><linearGradient id="Blue_2-20" x1="238.08" y1="349.53" x2="233.67" y2="495.3" xlink:href="#Blue_2"/><linearGradient id="Blue_2-21" x1="130.64" y1="346.28" x2="126.22" y2="492.04" xlink:href="#Blue_2"/><linearGradient id="Blue_2-22" x1="142.07" y1="346.62" x2="137.65" y2="492.39" xlink:href="#Blue_2"/><linearGradient id="Blue_2-23" x1="132.69" y1="346.34" x2="128.27" y2="492.1" xlink:href="#Blue_2"/><linearGradient id="Blue_2-24" x1="144.59" y1="346.7" x2="140.18" y2="492.46" xlink:href="#Blue_2"/><linearGradient id="Blue_2-25" x1="133.69" y1="346.37" x2="129.28" y2="492.13" xlink:href="#Blue_2"/><linearGradient id="Blue_2-26" x1="129.82" y1="346.25" x2="125.41" y2="492.01" xlink:href="#Blue_2"/><linearGradient id="Blue_2-27" x1="134.71" y1="346.4" x2="130.3" y2="492.16" xlink:href="#Blue_2"/><linearGradient id="Blue_2-28" x1="139.7" y1="346.55" x2="135.28" y2="492.31" xlink:href="#Blue_2"/><linearGradient id="Blue_2-29" x1="132.08" y1="346.32" x2="127.66" y2="492.08" xlink:href="#Blue_2"/><linearGradient id="Blue_2-30" x1="135.12" y1="346.41" x2="130.71" y2="492.18" xlink:href="#Blue_2"/><linearGradient id="Blue_2-31" x1="312.35" y1="351.78" x2="307.93" y2="497.55" xlink:href="#Blue_2"/><linearGradient id="Blue_2-32" x1="134.59" y1="346.4" x2="130.17" y2="492.16" xlink:href="#Blue_2"/><linearGradient id="Blue_2-33" x1="133.23" y1="346.36" x2="128.81" y2="492.12" xlink:href="#Blue_2"/><linearGradient id="Blue_2-34" x1="312.39" y1="351.79" x2="307.97" y2="497.55" xlink:href="#Blue_2"/><linearGradient id="Blue_2-35" x1="150.2" y1="346.87" x2="145.79" y2="492.63" xlink:href="#Blue_2"/><linearGradient id="Blue_2-36" x1="147.29" y1="346.78" x2="142.88" y2="492.54" xlink:href="#Blue_2"/><linearGradient id="Blue_2-37" x1="128.94" y1="346.23" x2="124.53" y2="491.99" xlink:href="#Blue_2"/><linearGradient id="Blue_2-38" x1="126" y1="346.14" x2="121.58" y2="491.9" xlink:href="#Blue_2"/><linearGradient id="Blue_2-39" x1="67.33" y1="344.36" x2="62.91" y2="490.12" xlink:href="#Blue_2"/><linearGradient id="Blue_2-40" x1="65.45" y1="344.3" x2="61.04" y2="490.06" xlink:href="#Blue_2"/><linearGradient id="Blue_2-41" x1="177.51" y1="347.7" x2="173.09" y2="493.46" xlink:href="#Blue_2"/><linearGradient id="Blue_2-42" x1="182.68" y1="347.85" x2="178.26" y2="493.62" xlink:href="#Blue_2"/><linearGradient id="Blue_2-43" x1="163.33" y1="347.27" x2="158.91" y2="493.03" xlink:href="#Blue_2"/><linearGradient id="Blue_2-44" x1="72.37" y1="344.51" x2="67.95" y2="490.27" xlink:href="#Blue_2"/><linearGradient id="Blue_2-45" x1="128.01" y1="346.2" x2="123.59" y2="491.96" xlink:href="#Blue_2"/><linearGradient id="Blue_2-46" x1="122.28" y1="346.02" x2="117.86" y2="491.79" xlink:href="#Blue_2"/><linearGradient id="Blue_2-47" x1="135.34" y1="346.42" x2="130.92" y2="492.18" xlink:href="#Blue_2"/><linearGradient id="Blue_2-48" x1="131.39" y1="346.3" x2="126.98" y2="492.06" xlink:href="#Blue_2"/><linearGradient id="Blue_2-49" x1="180.43" y1="347.79" x2="176.01" y2="493.55" xlink:href="#Blue_2"/><linearGradient id="Blue_2-50" x1="66.77" y1="344.34" x2="62.35" y2="490.1" xlink:href="#Blue_2"/><linearGradient id="Blue_2-51" x1="134.07" y1="346.38" x2="129.66" y2="492.14" xlink:href="#Blue_2"/><linearGradient id="Blue_2-52" x1="163.99" y1="347.29" x2="159.58" y2="493.05" xlink:href="#Blue_2"/><linearGradient id="Blue_2-53" x1="164.4" y1="347.3" x2="159.98" y2="493.06" xlink:href="#Blue_2"/><linearGradient id="Blue_2-54" x1="148.7" y1="346.82" x2="144.28" y2="492.59" xlink:href="#Blue_2"/><linearGradient id="Blue_2-55" x1="40.16" y1="343.54" x2="35.74" y2="489.3" xlink:href="#Blue_2"/><linearGradient id="Blue_2-56" x1="122" y1="346.02" x2="117.58" y2="491.78" xlink:href="#Blue_2"/><linearGradient id="Blue_2-57" x1="121.07" y1="345.99" x2="116.65" y2="491.75" xlink:href="#Blue_2"/><linearGradient id="Blue_2-58" x1="134.37" y1="346.39" x2="129.96" y2="492.15" xlink:href="#Blue_2"/><linearGradient id="Blue_2-59" x1="174.8" y1="347.62" x2="170.38" y2="493.38" xlink:href="#Blue_2"/><linearGradient id="Blue_2-60" x1="121.56" y1="346" x2="117.14" y2="491.76" xlink:href="#Blue_2"/><linearGradient id="Blue_2-61" x1="164.64" y1="347.31" x2="160.22" y2="493.07" xlink:href="#Blue_2"/><linearGradient id="Blue_2-62" x1="186.02" y1="347.96" x2="181.6" y2="493.72" xlink:href="#Blue_2"/><linearGradient id="Blue_2-63" x1="49.92" y1="343.83" x2="45.5" y2="489.59" xlink:href="#Blue_2"/><linearGradient id="Blue_2-64" x1="49.66" y1="343.82" x2="45.24" y2="489.59" xlink:href="#Blue_2"/><linearGradient id="Blue_2-65" x1="49.63" y1="343.82" x2="45.22" y2="489.58" xlink:href="#Blue_2"/><linearGradient id="Blue_2-66" x1="40.34" y1="343.54" x2="35.92" y2="489.3" xlink:href="#Blue_2"/><linearGradient id="Blue_2-67" x1="148.17" y1="346.81" x2="143.75" y2="492.57" xlink:href="#Blue_2"/><linearGradient id="Blue_2-68" x1="181.55" y1="347.82" x2="177.95" y2="466.54" xlink:href="#Blue_2"/><linearGradient id="Blue_2-69" x1="149.49" y1="346.85" x2="145.08" y2="492.61" xlink:href="#Blue_2"/><linearGradient id="Blue_2-70" x1="213.59" y1="348.79" x2="209.17" y2="494.55" xlink:href="#Blue_2"/><linearGradient id="Blue_2-71" x1="50.43" y1="343.85" x2="46.02" y2="489.61" xlink:href="#Blue_2"/><linearGradient id="Blue_2-72" x1="148.83" y1="346.83" x2="144.41" y2="492.59" xlink:href="#Blue_2"/><linearGradient id="Blue_2-73" x1="151.06" y1="346.9" x2="146.65" y2="492.66" xlink:href="#Blue_2"/><linearGradient id="Blue_2-74" x1="180.59" y1="347.79" x2="176.17" y2="493.55" xlink:href="#Blue_2"/><linearGradient id="Blue_2-75" x1="185.13" y1="347.93" x2="180.72" y2="493.69" xlink:href="#Blue_2"/><linearGradient id="Blue_2-76" x1="185.92" y1="347.95" x2="181.5" y2="493.71" xlink:href="#Blue_2"/><linearGradient id="Blue_2-77" x1="50.99" y1="343.86" x2="46.57" y2="489.63" xlink:href="#Blue_2"/><linearGradient id="Blue_2-78" x1="185.67" y1="347.95" x2="181.25" y2="493.71" xlink:href="#Blue_2"/><linearGradient id="Blue_2-79" x1="52.59" y1="343.91" x2="48.17" y2="489.67" xlink:href="#Blue_2"/><linearGradient id="Blue_2-80" x1="51.69" y1="343.89" x2="47.27" y2="489.65" xlink:href="#Blue_2"/><linearGradient id="Blue_2-81" x1="179.48" y1="182.98" x2="165.6" y2="296.23" xlink:href="#Blue_2"/><linearGradient id="_ÂÁ_Ï_ÌÌ_È_ËÂÌÚ_15" x1="339.01" y1="97.19" x2="291.41" y2="184.84" xlink:href="#Blue_2"/></defs><title>background-mobile</title><g class="cls-2"><g id="Layer_1" data-name="Layer 1"><g class="cls-3"><path class="cls-4" d="M7,17.15C3,18.93-1,21-3.84,24.42S-8,32.74-6.11,36.71c.9,1.89,2.47,3.52,2.74,5.59.59,4.52-4.85,7.08-9.12,8.65a65.2,65.2,0,0,0-27,18.85c-5.11,6-9.26,14-7.19,21.57,2.41,8.85,13,13,20.81,16,11,4.21,23.57,3.52,34.82.74,8.14-2,16.44-5.34,21.58-12C33.72,92.06,35.47,87,38.73,83c7.06-8.71,19.32-10.61,30.35-12.6C77.71,68.84,88.48,66.3,94.21,59c5-6.36,13.08-16.3,14.41-24.41,1.65-10-5.67-19.93-14.92-24.2-13.3-6.15-28-2.29-42-2.42A108.56,108.56,0,0,0,7,17.15Z"/><path class="cls-5" d="M91.81,154.41a42,42,0,0,0,14.07,4c22.51,2.47,45.92-10,56.69-30.1,22.69,21.67,54.62,32,85.83,31.59s61.71-10.81,89-26.12c4.41-2.48,9-5.15,14-5.41,11.95-.6,21.08,12.25,33,12.87,10.38.55,19.3-9,21.25-19.31s-1.56-20.92-6.27-30.29c-13-25.84-29.22-51-51.62-69.47-9.39-7.77-14.86-11.71-26.92-15A206.5,206.5,0,0,0,284.53.86c-27.71-2.33-52.78,3.31-79.75,8C180.24,13.2,157.13,24.15,139.37,42c-3.31,3.33-6.35,9.2-2.74,12.18,1.36,1.12,3.25,1.32,4.7,2.3,3.14,2.1,3,7.1.8,10.18s-5.81,4.74-9.2,6.41a149.08,149.08,0,0,0-40.54,29.43c-9.91,10.15-18.87,24.53-14,37.91C80.73,146.75,85.76,151.39,91.81,154.41Z"/><rect class="cls-6" x="16.76" y="206.7" width="6.06" height="21.89"/><path class="cls-7" d="M53,186.55C55.39,199,38.5,214.43,18.39,209.9c-22.24,5.86-44.11-16.75-28.88-52.06,3.81-5.85,6.28-15.05,25.87-15.93C42.47,136.38,61.72,162.3,53,186.55Z"/><path class="cls-7" d="M55.14,175.05c-4.7,10.83-13.66,8.88-15.6,14.39a11.3,11.3,0,0,1-2.77,4.5c-2.64,2.58-7.43,3.2-11.87,2.51-7.32-1.12-2.87,4.81-13.39,4.27-6.11-.31-5.66,3.86-11.45,3.5-.72-.05-4.19-1.5-7.52-1.6a25.82,25.82,0,0,0,25.85,7.28C38.5,214.43,55.39,199,53,186.55A42,42,0,0,0,55.14,175.05Z"/><path class="cls-8" d="M6.84,180.15C9.63,194.53-9.83,212.28-33,207.06c-25.63,6.75-50.82-19.31-33.28-60,4.4-6.74,7.24-17.34,29.81-18.36C-5.26,122.33,16.92,152.2,6.84,180.15Z"/><path class="cls-7" d="M9.34,166.89c-5.42,12.48-15.75,10.23-18,16.59a13,13,0,0,1-3.2,5.18c-3,3-8.57,3.68-13.68,2.9-8.43-1.3-3.3,5.53-15.42,4.92-7-.36-6.53,4.45-13.2,4-.83-.06-4.83-1.73-8.67-1.85A29.78,29.78,0,0,0-33,207.06c23.18,5.22,42.64-12.53,39.85-26.91A48.38,48.38,0,0,0,9.34,166.89Z"/><path class="cls-1" d="M355.73,230.69c18.66-.11,42.9-.49,69.37-1-3.35-6.23-7.68-11.25-13.11-14.61l22.09-103.36L325.42-19.92l-136,8L-1.11,113.89A60.31,60.31,0,0,1-21,122.39l-21.73,4.94a36.25,36.25,0,0,0-26.08,23.09l-16.55,46.1s-11.23,32.76-7.92,66.58C-39.73,256.94,189.69,231.67,355.73,230.69Z"/><path class="cls-9" d="M-93.3,263.1C-91,286.18-82,309.75-58,323.73,9.27,362.88-64.18,418.26,182.3,420,238,420.42,354.58,411.9,397,373.7c33.15-29.84,47.65-107.63,28.08-144-26.47.52-50.71.9-69.37,1C189.69,231.67-39.73,256.94-93.3,263.1Z"/><path class="cls-1" d="M412,215.07l22.09-103.36L325.42-19.92l-136,8L-1.11,113.89A60.31,60.31,0,0,1-21,122.39l-21.73,4.94a36.25,36.25,0,0,0-26.08,23.09l-16.55,46.1S-117.18,289.28-58,323.73a88.11,88.11,0,0,1,15.13,11,15.2,15.2,0,0,1,.8-1.42c.07-.12.15-.23.23-.35a12.86,12.86,0,0,1,1-1.38c-.07.68-.11,1.37-.15,2.05L-41,335h0c0,.49,0,1,0,1.47a81.51,81.51,0,0,1,11.3,13.84c0-.25,0-.49.06-.73.06.38.14.76.21,1.14,4.37,6.71,7.73,13.44,11.85,19.94l.92,0h.23A89.46,89.46,0,0,0-22.5,342l-.05-.07c-.86-2.15-1.77-4.27-2.79-6.3.54.57,1.07,1.15,1.6,1.75l1,1.15.56.66c.43.52.86,1,1.28,1.59l.23.28A94.86,94.86,0,0,1-5.51,370.18h.21a55.86,55.86,0,0,1-.38-7.31v-.5c0-.66,0-1.32.07-2,0-.19,0-.37,0-.56.07-1.18.19-2.35.34-3.51,0-.25.05-.49.09-.74.06-.43.14-.86.21-1.29s.16-.94.25-1.41l.24-1.12c.12-.55.25-1.09.39-1.64.08-.29.15-.59.24-.88.23-.84.48-1.67.76-2.49a10.51,10.51,0,0,0-.33,1.2,1.18,1.18,0,0,0,0,.2c-.07.36-.14.73-.19,1.1a.53.53,0,0,1,0,.13c0,.42-.08.84-.1,1.28v0c0,.47,0,.95,0,1.45h0c0,.37,0,.74,0,1.13,0,.59.11,1.2.19,1.82,0,.13,0,.25,0,.37.07.57.16,1.13.27,1.71a1.55,1.55,0,0,0,0,.21c.12.66.26,1.32.42,2a1.55,1.55,0,0,0,.05.23c.14.58.29,1.16.44,1.74,0,.15.08.3.13.44.16.6.34,1.21.52,1.81a.75.75,0,0,1,.05.16c.21.65.42,1.3.64,1.95.06.15.11.3.16.46l.54,1.48c.06.18.13.35.19.52.23.62.47,1.24.71,1.84l5.49-.14,5.31-.12h.19c3.74-.07,7.57-.13,11.47-.18h0l1.54,0A71.32,71.32,0,0,0,15.52,355L13,351.72c6-.7,10.68,4.95,14.56,9.78,2.22,2.76,4.58,5.41,7,8h6a32.67,32.67,0,0,1-1-6.6h0a32.89,32.89,0,0,1,0-3.58s0-.06,0-.09c0-.53.08-1.06.14-1.59,0-.08,0-.17,0-.25.08-.6.16-1.19.27-1.79a122.77,122.77,0,0,0,8.66,13.93h1.64a41,41,0,0,1-1.19-8.41h0c0-.81,0-1.63,0-2.45,0,0,0,0,0-.08,0-.74,0-1.49.11-2.24a2.64,2.64,0,0,1,0-.29,44.41,44.41,0,0,1,.63-4.59L50,351c.14-.64.28-1.28.45-1.91,0-.11.05-.23.08-.34.19-.72.41-1.44.64-2.15,0-.13.09-.27.14-.41.2-.57.4-1.13.62-1.69.07-.19.15-.37.22-.56.28-.68.57-1.35.89-2,.35,7.64.72,15.36,2.83,22.69a43.51,43.51,0,0,0,1.77,4.95l6,.1,5.79.12h1A54.72,54.72,0,0,0,68,361.51h0c-.47-1.17-1-2.34-1.52-3.48l-.15-.3c-.23-.47-.46-.93-.7-1.39s-.61-1.14-.93-1.7A87.64,87.64,0,0,1,76.17,370l3.85.11h.11A55.38,55.38,0,0,0,74.05,345h0c-.48-.92-1-1.82-1.5-2.71l-.21-.34c-.52-.87-1.06-1.72-1.63-2.55C81,346,87.77,357.92,89.22,370.41q8.07.31,16.31.74c.07-.12.15-.23.22-.34,6.33-10.3,12-20.35,14.89-32.33q.28,1,.51,2.1c0,.21.1.43.14.64q.17.78.3,1.56c0,.22.08.43.11.65.12.71.22,1.41.3,2.12,0,.06,0,.12,0,.19.07.65.13,1.31.17,2,0,.24,0,.49,0,.73,0,.5,0,1,.05,1.5,0,.24,0,.49,0,.73,0,.7,0,1.4,0,2.1h0a46.41,46.41,0,0,1-.43,4.86c.12-.15.24-.31.35-.47v0a13.73,13.73,0,0,0,2.12-4.43v0a14.82,14.82,0,0,0,.33-1.61c.1.57.19,1.15.26,1.73,0,.37.07.74.1,1.12,0,.18,0,.36,0,.54,0,.5,0,1,0,1.48a.76.76,0,0,1,0,.15c0,.54,0,1.08,0,1.62h0a28,28,0,0,1-1.76,8.4c.39-.22.77-.46,1.15-.7h0l.8-.57.33-.24.69-.56.39-.32c.21-.18.41-.37.61-.57l.41-.38.56-.58.41-.43.51-.6.4-.48c.16-.2.31-.41.46-.61s.26-.35.38-.53l.42-.62.36-.57c.13-.2.25-.41.37-.62l.34-.61.33-.64c.11-.21.21-.43.31-.64s.19-.43.28-.64.19-.46.28-.68.17-.42.24-.64.17-.48.25-.72.14-.42.2-.63.14-.51.2-.77.11-.4.16-.61.11-.55.17-.82.07-.38.11-.58.09-.62.12-.93.05-.32.07-.48c.05-.48.08-.95.1-1.43.1.92.18,1.85.24,2.77,0,.4.05.79.07,1.18s0,.94.06,1.41c0,1.2,0,2.4,0,3.6v0h0a66.77,66.77,0,0,1-2.6,17l.14,0a74.78,74.78,0,0,1,5.29-6.46l.06-.06c.73-.81,1.48-1.59,2.25-2.36l.22-.22c.72-.71,1.45-1.41,2.2-2.1l.47-.41c.68-.61,1.36-1.21,2.06-1.8.27-.23.55-.44.83-.66.6-.49,1.2-1,1.82-1.44.45-.35.92-.67,1.38-1s.91-.67,1.38-1c.95-.65,1.91-1.28,2.89-1.88-.38.24-.74.49-1.09.75l-.33.28c-.22.18-.45.36-.66.56s-.24.23-.36.35-.37.37-.55.56l-.35.4c-.16.19-.32.39-.47.59l-.32.43c-.15.21-.29.42-.43.64l-.28.44c-.14.24-.28.48-.41.72s-.15.28-.23.42c-.19.38-.37.76-.54,1.15h0A37.31,37.31,0,0,0,145,373.9l2.21.2a41,41,0,0,1,6.45-9.74c.31,3.11.63,6.23.94,9.34A33.75,33.75,0,0,0,162.89,351c.22,1.12.4,2.24.56,3.37.05.35.08.7.13,1.05.1.8.19,1.6.26,2.4,0,.39.07.77.1,1.16.06.82.11,1.64.14,2.47,0,.33,0,.65,0,1,0,1.15,0,2.3,0,3.45h0a69.22,69.22,0,0,1-.76,8.87,41.63,41.63,0,0,1,9.5-7.5l.21-.12c.75-.43,1.52-.85,2.3-1.23.2-.09.4-.17.59-.27.67-.31,1.34-.62,2-.9.4-.16.8-.29,1.2-.44s1-.38,1.49-.54c.92-.3,1.84-.56,2.77-.79a11.22,11.22,0,0,0-1.14.81l-.24.2a11.7,11.7,0,0,0-1,1h0a14.14,14.14,0,0,0-.94,1.11l-.11.15c-.29.4-.57.82-.83,1.26h0a14.75,14.75,0,0,0-1.91,8.94h0c0,.32.08.63.14.95l1.62.19a22.4,22.4,0,0,0,5.26-9.39c.19.54.34,1.08.48,1.63l.09.41a14.82,14.82,0,0,1,.28,1.62v0a16.93,16.93,0,0,1,.11,1.74v.3a16.67,16.67,0,0,1-.06,1.73h0a20,20,0,0,1-.41,2.67q11.93,1.56,23.82,3.47l.21,0c2.52.41,5,.82,7.55,1.25l.82.15c2.31.4,4.62.8,6.93,1.22l1.52.29,6.21,1.17c.86.16,1.71.34,2.57.51,1.71.34,3.42.67,5.12,1,2.57.53,5.12,1.07,7.67,1.63,8.4-.73,15.36.22,24-4.49,7.2-3.92,13.56-9.3,19.86-14.64-.31.92-.66,1.82-1,2.72a82.47,82.47,0,0,1-13.88,23.49l3.29.9A33.93,33.93,0,0,0,292,386c0,.6,0,1.2-.09,1.79,0,0,0,0,0,.07q-.08.86-.21,1.71h0a23.91,23.91,0,0,1-3.94,9.74c1.36.4,2.72.82,4.07,1.23a34.85,34.85,0,0,0,19.37-24.8c.09.55.17,1.11.22,1.67,0,.26.05.52.07.78s0,.55.05.82,0,.7,0,1c0,.16,0,.32,0,.47,0,.42,0,.83,0,1.24h0c-.47,7.84-4.19,15.43-8.19,22.48l1.88.63a141.89,141.89,0,0,1,13.33-7l-5.12,9.87.09,0c34.32-7.11,65.59-18,83.56-34.14C435.85,338.75,449.1,238,412,215.07Z"/><path class="cls-10" d="M126.29,364l.39-.32Z"/><path class="cls-11" d="M291.88,387.9q-.08.86-.21,1.71Q291.8,388.76,291.88,387.9Z"/><path class="cls-12" d="M124.92,352.78c0,.37.07.74.1,1.12C125,353.52,125,353.15,124.92,352.78Z"/><path class="cls-13" d="M292,386c0,.6,0,1.2-.09,1.79C291.94,387.24,292,386.64,292,386Z"/><path class="cls-14" d="M125.07,354.44c0,.5,0,1,0,1.48C125.11,355.43,125.1,354.94,125.07,354.44Z"/><path class="cls-15" d="M125.12,356.07c0,.54,0,1.08,0,1.62C125.1,357.15,125.12,356.61,125.12,356.07Z"/><path class="cls-16" d="M153.51,353.51c-.38.24-.74.49-1.09.75C152.77,354,153.13,353.75,153.51,353.51Z"/><path class="cls-17" d="M311.38,377.45c0,.26.05.52.07.78C311.43,378,311.41,377.71,311.38,377.45Z"/><path class="cls-18" d="M152.09,354.54c-.23.18-.45.36-.66.56C151.64,354.9,151.87,354.72,152.09,354.54Z"/><path class="cls-19" d="M150.17,356.41c-.16.19-.32.39-.47.59C149.85,356.8,150,356.6,150.17,356.41Z"/><path class="cls-20" d="M217.16,383.13c2.31.4,4.62.8,6.93,1.22C221.78,383.93,219.47,383.53,217.16,383.13Z"/><path class="cls-21" d="M39.65,359.2c0-.53.08-1.06.14-1.59C39.73,358.14,39.68,358.67,39.65,359.2Z"/><path class="cls-22" d="M11.7,369.74c3.74-.07,7.57-.13,11.47-.18C19.27,369.61,15.44,369.67,11.7,369.74Z"/><path class="cls-23" d="M225.61,384.64l6.21,1.17Z"/><path class="cls-24" d="M6.2,369.86l5.31-.12Z"/><path class="cls-25" d="M124.33,352.68v0Z"/><path class="cls-26" d="M122.29,349.93c0,.24,0,.49,0,.73C122.31,350.42,122.3,350.17,122.29,349.93Z"/><path class="cls-27" d="M234.39,386.32c1.71.34,3.42.67,5.12,1C237.81,387,236.1,386.66,234.39,386.32Z"/><path class="cls-28" d="M130,360.05c.13-.18.26-.35.38-.53C130.3,359.7,130.17,359.87,130,360.05Z"/><path class="cls-29" d="M140.48,363.79c.72-.71,1.45-1.41,2.2-2.1C141.93,362.38,141.2,363.08,140.48,363.79Z"/><path class="cls-30" d="M132.24,356.46c.11-.21.21-.43.31-.64C132.45,356,132.35,356.25,132.24,356.46Z"/><path class="cls-31" d="M143.15,361.28c.67-.61,1.36-1.21,2.06-1.8C144.51,360.07,143.83,360.67,143.15,361.28Z"/><path class="cls-32" d="M133.35,353.86c.09-.24.17-.48.25-.72C133.52,353.38,133.44,353.62,133.35,353.86Z"/><path class="cls-33" d="M129.18,361.14l.4-.48Z"/><path class="cls-34" d="M134.63,348.32c.05-.48.08-.95.1-1.43C134.71,347.37,134.68,347.84,134.63,348.32Z"/><path class="cls-35" d="M138,366.37c.73-.81,1.48-1.59,2.25-2.36C139.49,364.78,138.74,365.56,138,366.37Z"/><path class="cls-36" d="M131.57,357.71l.34-.61Z"/><path class="cls-37" d="M135,349.66c0,.4.05.79.07,1.18C135,350.45,135,350.06,135,349.66Z"/><path class="cls-38" d="M311.5,379.05c0,.35,0,.7,0,1C311.52,379.75,311.51,379.4,311.5,379.05Z"/><path class="cls-39" d="M134.44,349.73q.08-.47.12-.93Q134.51,349.27,134.44,349.73Z"/><path class="cls-40" d="M132.83,355.18c.1-.23.19-.45.28-.68C133,354.72,132.93,355,132.83,355.18Z"/><path class="cls-41" d="M311.51,380.56c0,.42,0,.83,0,1.24C311.5,381.39,311.51,381,311.51,380.56Z"/><path class="cls-42" d="M149.24,356.38l1.38-1C150.15,355.71,149.7,356.05,149.24,356.38Z"/><path class="cls-43" d="M146,358.82c.6-.49,1.2-1,1.82-1.44C147.24,357.84,146.64,358.33,146,358.82Z"/><path class="cls-44" d="M128.26,362.17l.41-.43Z"/><path class="cls-45" d="M125.27,364.82l.33-.24Z"/><path class="cls-46" d="M63.66,369.69l5.79.12Z"/><path class="cls-47" d="M65.58,356.34c-.3-.57-.61-1.14-.93-1.7C65,355.2,65.28,355.77,65.58,356.34Z"/><path class="cls-48" d="M176,365.58c.67-.31,1.34-.62,2-.9C177.31,365,176.64,365.27,176,365.58Z"/><path class="cls-49" d="M182.31,363.72l-.24.2Z"/><path class="cls-50" d="M162.89,351c.22,1.12.4,2.25.56,3.37C163.29,353.19,163.11,352.07,162.89,351Z"/><path class="cls-51" d="M72.55,342.24l-.21-.34Z"/><path class="cls-52" d="M127.7,362.75l-.41.38Z"/><path class="cls-53" d="M122.19,347.7c0,.24,0,.49,0,.73C122.22,348.19,122.21,347.94,122.19,347.7Z"/><path class="cls-54" d="M135.12,355.85c0-1.2,0-2.4,0-3.6C135.13,353.45,135.14,354.65,135.12,355.85Z"/><path class="cls-55" d="M130.84,358.9l.36-.57Z"/><path class="cls-56" d="M179.19,364.24c.5-.18,1-.38,1.49-.54C180.18,363.86,179.69,364.06,179.19,364.24Z"/><path class="cls-57" d="M66.43,358l-.15-.3Z"/><path class="cls-58" d="M133.8,352.51c.07-.25.14-.51.2-.77C133.94,352,133.87,352.26,133.8,352.51Z"/><path class="cls-59" d="M163.58,355.37c.1.8.19,1.6.26,2.4C163.77,357,163.68,356.17,163.58,355.37Z"/><path class="cls-60" d="M163.94,358.93c.06.82.11,1.64.14,2.47C164.05,360.57,164,359.75,163.94,358.93Z"/><path class="cls-61" d="M318.49,397.94l-2.16,4.17q-5.7,2.73-11.17,5.95l-1.88-.63c.5-.88,1-1.76,1.47-2.66l.41.14-1.88-.63c4-7,7.72-14.64,8.19-22.48a25.42,25.42,0,0,0-.31-2.87,34.85,34.85,0,0,1-19.37,24.8c-1.35-.41-2.71-.83-4.07-1.23a24.72,24.72,0,0,0,1.59-2.67l2.48.75c-1.35-.41-2.71-.83-4.07-1.23a23.91,23.91,0,0,0,3.94-9.74,33.72,33.72,0,0,1-12.23,10.49l-3.29-.9c.71-.84,1.4-1.71,2.08-2.58l1.21.33-3.29-.9A82.47,82.47,0,0,0,290,372.56q-.37,1-.78,1.95c-5.73,4.83-11.55,9.57-18.07,13.12-8.63,4.71-15.59,3.76-24,4.49-20.49-4.48-41.47-8-62.42-10.74a19,19,0,0,0,.43-3.09q11.7,1.53,23.39,3.41-11.88-1.92-23.82-3.47a20,20,0,0,0,.41-2.67,16.91,16.91,0,0,0-.91-4.31,22.4,22.4,0,0,1-5.26,9.39l-1.62-.19a14.1,14.1,0,0,1-.14-4.1,14.75,14.75,0,0,1,1.91-8.94,41.59,41.59,0,0,0-15.78,10.44c.18-1.19.32-2.38.44-3.58a41.75,41.75,0,0,1,9.06-7.07,41.63,41.63,0,0,0-9.5,7.5,69.22,69.22,0,0,0,.76-8.87,70,70,0,0,0-1.24-11.73,33.75,33.75,0,0,1-8.31,22.75c-.31-3.11-.63-6.23-.94-9.34a41,41,0,0,0-6.45,9.74l-2.21-.2c0-1.05.11-2.09.21-3.13l2,.18-2.21-.2a37.31,37.31,0,0,1,2.51-13.09A73.62,73.62,0,0,0,132.66,376l-.14,0c.42-1.44.77-2.9,1.09-4.38q2.05-2.7,4.34-5.21a74.78,74.78,0,0,0-5.29,6.46l-.14,0a66.77,66.77,0,0,0,2.6-17c-.05-1.95-.17-3.9-.39-5.84a23.49,23.49,0,0,1-11.41,19.2,27.05,27.05,0,0,0,1.15-3.85c-.38.24-.76.48-1.15.7a28,28,0,0,0,1.76-8.4,29.16,29.16,0,0,0-.42-3.49,13.45,13.45,0,0,1-2.81,6.57c.17-1.2.28-2.41.35-3.62-.11.16-.23.32-.35.47a46.41,46.41,0,0,0,.43-4.86,47.52,47.52,0,0,0-1.64-11.13c-2.94,12-8.56,22-14.89,32.33-.07.11-.15.22-.22.34q-8.23-.44-16.31-.74c-1.29-11.08-6.75-21.72-15.17-28.61a55.38,55.38,0,0,1,6.08,25.15H80c.07,1.05.11,2.1.11,3.16l-4-.12A88.85,88.85,0,0,0,68,361.51a54.72,54.72,0,0,1,2.54,8.32h-.8c.29,1,.57,2.1.8,3.16q-6.49-.15-12.83-.24a43.51,43.51,0,0,1-1.77-4.95c-2.11-7.33-2.48-15.05-2.83-22.69a40.47,40.47,0,0,0-3.87,16,41,41,0,0,0,1.19,8.41h-.65c.17,1.06.39,2.11.65,3.15H48.74a122.77,122.77,0,0,1-8.66-13.93,30.44,30.44,0,0,0-.45,4.15,32.67,32.67,0,0,0,1,6.6H40c.17,1.06.38,2.11.64,3.15h-6c-2.43-2.56-4.79-5.21-7-8-3.31-4.13-7.23-8.85-12-9.7h0a71.32,71.32,0,0,1,9.19,14.59l-1.54,0c.55,1,1.07,2.07,1.54,3.13q-12.57.13-24,.46c-2.62-6.52-4.83-14.15-4.4-19.89h0c0-.39,0-.76,0-1.13A52.35,52.35,0,0,0-5.67,365c0-.7,0-1.4,0-2.1a55.86,55.86,0,0,0,.38,7.31h-.21A94.86,94.86,0,0,0-20.68,341.1,94.59,94.59,0,0,1-5.6,369.94c.07,1.13.16,2.26.3,3.39h-.21A93.5,93.5,0,0,0-22.5,342a89.46,89.46,0,0,1,6.05,28.53h-.23c.05.56.09,1.11.13,1.66C.19,397.61,30.85,418.94,182.3,420c32.09.23,84.44-2.51,131.16-12.19l-.09,0Z"/><path class="cls-62" d="M39.64,359.29a32.89,32.89,0,0,0,0,3.58A32.89,32.89,0,0,1,39.64,359.29Z"/><path class="cls-63" d="M122,345.55c0,.06,0,.12,0,.19S122,345.61,122,345.55Z"/><path class="cls-64" d="M121.15,340.58c0,.21.1.43.14.64C121.25,341,121.2,340.79,121.15,340.58Z"/><path class="cls-65" d="M134.16,351.13c.06-.27.11-.55.17-.82C134.27,350.58,134.22,350.86,134.16,351.13Z"/><path class="cls-66" d="M173.08,367.08c.75-.43,1.52-.85,2.3-1.23C174.6,366.23,173.83,366.65,173.08,367.08Z"/><path class="cls-67" d="M121.59,342.78c0,.22.08.43.11.65C121.67,343.21,121.63,343,121.59,342.78Z"/><path class="cls-68" d="M164.12,362.38c0,1.15,0,2.3,0,3.45C164.16,364.68,164.15,363.53,164.12,362.38Z"/><path class="cls-69" d="M185.23,373.83a16.67,16.67,0,0,1-.06,1.73A16.67,16.67,0,0,0,185.23,373.83Z"/><path class="cls-70" d="M49.3,356a44.41,44.41,0,0,1,.63-4.59A44.41,44.41,0,0,0,49.3,356Z"/><path class="cls-71" d="M49.19,361.1c0-.81,0-1.63,0-2.45C49.15,359.47,49.15,360.29,49.19,361.1Z"/><path class="cls-72" d="M49.17,358.57c0-.74,0-1.49.11-2.24C49.22,357.08,49.18,357.83,49.17,358.57Z"/><path class="cls-73" d="M39.81,357.36c.08-.6.16-1.19.27-1.79C40,356.17,39.89,356.76,39.81,357.36Z"/><path class="cls-74" d="M148,359.65c-.19.38-.37.76-.54,1.15C147.66,360.41,147.84,360,148,359.65Z"/><path class="cls-75" d="M181,364.89h0Z"/><path class="cls-76" d="M149.38,357.43c-.15.21-.29.42-.43.64C149.09,357.85,149.23,357.64,149.38,357.43Z"/><path class="cls-77" d="M208.79,381.73c2.52.41,5,.82,7.55,1.25C213.83,382.55,211.31,382.14,208.79,381.73Z"/><path class="cls-78" d="M50,351c.14-.64.28-1.28.45-1.91C50.3,349.74,50.16,350.38,50,351Z"/><path class="cls-79" d="M148.67,358.51c-.14.24-.28.48-.41.72C148.39,359,148.53,358.75,148.67,358.51Z"/><path class="cls-80" d="M150.52,356c.18-.19.36-.38.55-.56C150.88,355.63,150.7,355.82,150.52,356Z"/><path class="cls-81" d="M180.09,366l-.11.15Z"/><path class="cls-82" d="M184.26,368.1c.19.54.34,1.08.48,1.63C184.6,369.18,184.45,368.64,184.26,368.1Z"/><path class="cls-83" d="M185.12,371.79c.06.58.1,1.16.11,1.74A16.93,16.93,0,0,0,185.12,371.79Z"/><path class="cls-84" d="M50.55,348.77c.19-.72.41-1.44.64-2.15C51,347.33,50.74,348.05,50.55,348.77Z"/><path class="cls-85" d="M184.83,370.14a14.82,14.82,0,0,1,.28,1.62A14.82,14.82,0,0,0,184.83,370.14Z"/><path class="cls-86" d="M52.17,344c.28-.68.57-1.35.89-2C52.74,342.61,52.45,343.28,52.17,344Z"/><path class="cls-87" d="M51.33,346.21c.2-.57.4-1.13.62-1.69C51.73,345.08,51.53,345.64,51.33,346.21Z"/><path class="cls-88" d="M163.37,377.85a41.59,41.59,0,0,1,15.78-10.44h0c.26-.44.54-.86.83-1.26l.11-.15a14.14,14.14,0,0,1,.94-1.11h0a11.7,11.7,0,0,1,1-1l.24-.2a11.22,11.22,0,0,1,1.14-.81c-.93.23-1.85.49-2.77.79-.5.16-1,.36-1.49.54s-.8.28-1.2.44c-.68.28-1.35.59-2,.9-.19.1-.39.18-.59.27-.78.38-1.55.8-2.3,1.23l-.21.12a41.75,41.75,0,0,0-9.06,7.07C163.69,375.47,163.55,376.66,163.37,377.85Z"/><path class="cls-88" d="M132.52,376l.14,0a73.62,73.62,0,0,1,14.83-15.23h0c.17-.39.35-.77.54-1.15.08-.14.16-.28.23-.42s.27-.48.41-.72l.28-.44c.14-.22.28-.43.43-.64l.32-.43c.15-.2.31-.4.47-.59l.35-.4c.18-.19.36-.38.55-.56s.23-.24.36-.35.43-.38.66-.56l.33-.28c.35-.26.71-.51,1.09-.75-1,.6-1.94,1.23-2.89,1.88l-1.38,1c-.46.33-.93.65-1.38,1-.62.46-1.22.95-1.82,1.44-.28.22-.56.43-.83.66-.7.59-1.39,1.19-2.06,1.8l-.47.41c-.75.69-1.48,1.39-2.2,2.1l-.22.22c-.77.77-1.52,1.55-2.25,2.36l-.06.06q-2.28,2.51-4.34,5.21C133.29,373.12,132.94,374.58,132.52,376Z"/><path class="cls-88" d="M145,377.05l2.21.2a41,41,0,0,1,6.45-9.74c.31,3.11.63,6.23.94,9.34a33.75,33.75,0,0,0,8.31-22.75,70,70,0,0,1,1.24,11.73h0c0-1.15,0-2.3,0-3.45,0-.33,0-.65,0-1,0-.83-.08-1.65-.14-2.47,0-.39-.06-.77-.1-1.16-.07-.8-.16-1.6-.26-2.4-.05-.35-.08-.7-.13-1.05-.16-1.12-.34-2.25-.56-3.37a33.75,33.75,0,0,1-8.31,22.75c-.31-3.11-.63-6.23-.94-9.34a41,41,0,0,0-6.45,9.74l-2-.18C145.09,375,145,376,145,377.05Z"/><path class="cls-88" d="M89.22,373.56q8.07.31,16.31.74c.07-.12.15-.23.22-.34,6.33-10.3,12-20.35,14.89-32.33a47.52,47.52,0,0,1,1.64,11.13h0c0-.7,0-1.4,0-2.1,0-.24,0-.49,0-.73,0-.5,0-1-.05-1.5,0-.24,0-.49,0-.73,0-.65-.1-1.31-.17-2,0-.07,0-.13,0-.19-.08-.71-.18-1.41-.3-2.12,0-.22-.07-.43-.11-.65q-.14-.78-.3-1.56c0-.21-.09-.43-.14-.64q-.23-1.05-.51-2.1c-2.94,12-8.56,22-14.89,32.33-.07.11-.15.22-.22.34q-8.23-.43-16.31-.74C87.77,357.92,81,346,70.71,339.35c.57.83,1.11,1.68,1.63,2.55l.21.34c.52.89,1,1.79,1.5,2.71h0C82.47,351.84,87.93,362.48,89.22,373.56Z"/><path class="cls-88" d="M80.13,373.25c0-1.06,0-2.11-.11-3.16h0L76.17,370a87.64,87.64,0,0,0-11.52-15.34c.32.56.63,1.13.93,1.7s.47.92.7,1.39l.15.3c.55,1.14,1,2.31,1.52,3.48h0a88.85,88.85,0,0,1,8.22,11.62Z"/><path class="cls-88" d="M134.73,350c.22,1.94.34,3.89.39,5.84h0v0c0-1.2,0-2.4,0-3.6,0-.47,0-.94-.06-1.41s0-.78-.07-1.18c-.06-.92-.14-1.85-.24-2.77,0,.48,0,.95-.1,1.43,0,.16,0,.32-.07.48s-.07.62-.12.93-.08.39-.11.58-.11.55-.17.82-.1.41-.16.61-.13.52-.2.77-.13.42-.2.63-.16.48-.25.72-.16.43-.24.64-.18.45-.28.68-.18.43-.28.64-.2.43-.31.64l-.33.64-.34.61c-.12.21-.24.42-.37.62l-.36.57-.42.62c-.12.18-.25.35-.38.53s-.3.41-.46.61l-.4.48-.51.6-.41.43-.56.58-.41.38c-.2.2-.4.39-.61.57l-.39.32-.69.56-.33.24-.8.57h0a27.05,27.05,0,0,1-1.15,3.85A23.49,23.49,0,0,0,134.73,350Z"/><path class="cls-88" d="M303.28,407.43l1.88.63q5.46-3.22,11.17-5.95l2.16-4.17a141.89,141.89,0,0,0-13.33,7l-.41-.14C304.27,405.67,303.78,406.55,303.28,407.43Z"/><path class="cls-88" d="M177.38,380.45l1.62.19a22.4,22.4,0,0,0,5.26-9.39,16.91,16.91,0,0,1,.91,4.31h0a16.67,16.67,0,0,0,.06-1.73v-.3c0-.58,0-1.16-.11-1.74v0a14.82,14.82,0,0,0-.28-1.62l-.09-.41c-.14-.55-.29-1.09-.48-1.63a22.4,22.4,0,0,1-5.26,9.39l-1.62-.19c-.06-.32-.1-.63-.14-.95h0A14.1,14.1,0,0,0,177.38,380.45Z"/><path class="cls-88" d="M287.72,402.5c1.36.4,2.72.82,4.07,1.23a34.85,34.85,0,0,0,19.37-24.8,25.42,25.42,0,0,1,.31,2.87h0c0-.41,0-.82,0-1.24,0-.15,0-.31,0-.47,0-.34,0-.69,0-1s0-.55-.05-.82,0-.52-.07-.78c-.05-.56-.13-1.12-.22-1.67a34.85,34.85,0,0,1-19.37,24.8l-2.48-.75A24.72,24.72,0,0,1,287.72,402.5Z"/><path class="cls-88" d="M276.14,399.2l3.29.9a33.72,33.72,0,0,0,12.23-10.49h0q.13-.86.21-1.71s0,0,0-.07c.05-.59.08-1.19.09-1.79A33.93,33.93,0,0,1,279.43,397l-1.21-.33C277.54,397.49,276.85,398.36,276.14,399.2Z"/><path class="cls-88" d="M184.76,381.38c21,2.74,41.93,6.26,62.42,10.74,8.4-.73,15.36.22,24-4.49,6.52-3.55,12.34-8.29,18.07-13.12q.4-1,.78-1.95c.35-.9.7-1.8,1-2.72-6.3,5.34-12.66,10.72-19.86,14.64-8.63,4.71-15.59,3.76-24,4.49-2.55-.56-5.1-1.1-7.67-1.63-1.7-.35-3.41-.68-5.12-1-.86-.17-1.71-.35-2.57-.51l-6.21-1.17-1.52-.29c-2.31-.42-4.62-.82-6.93-1.22l-.82-.15c-2.51-.43-5-.84-7.55-1.25l-.21,0q-11.67-1.87-23.39-3.41A19,19,0,0,1,184.76,381.38Z"/><path class="cls-88" d="M124.66,354.2a29.16,29.16,0,0,1,.42,3.49h0c0-.54,0-1.08,0-1.62a.76.76,0,0,0,0-.15c0-.49,0-1,0-1.48,0-.18,0-.36,0-.54,0-.38-.06-.75-.1-1.12-.07-.58-.16-1.16-.26-1.73a14.82,14.82,0,0,1-.33,1.61v0a13.73,13.73,0,0,1-2.12,4.43v0c-.07,1.21-.18,2.42-.35,3.62A13.45,13.45,0,0,0,124.66,354.2Z"/><path class="cls-88" d="M55.89,367.79a43.51,43.51,0,0,0,1.77,4.95q6.33.09,12.83.24c-.23-1.06-.51-2.12-.8-3.16h-.24l-5.79-.12-6-.1a43.51,43.51,0,0,1-1.77-4.95c-2.11-7.33-2.48-15.05-2.83-22.69-.32.66-.61,1.33-.89,2-.07.19-.15.37-.22.56-.22.56-.42,1.12-.62,1.69,0,.14-.1.28-.14.41-.23.71-.45,1.43-.64,2.15,0,.11,0,.23-.08.34-.17.63-.31,1.27-.45,1.91l-.09.43A44.41,44.41,0,0,0,49.3,356a2.64,2.64,0,0,0,0,.29c-.06.75-.1,1.5-.11,2.24,0,0,0,.06,0,.08,0,.82,0,1.64,0,2.45h0a40.47,40.47,0,0,1,3.87-16C53.41,352.74,53.78,360.46,55.89,367.79Z"/><path class="cls-88" d="M.71,373.15q11.42-.31,24-.46c-.47-1.06-1-2.1-1.54-3.13h0c-3.9.05-7.73.11-11.47.18h-.19l-5.31.12L.71,370c-.24-.6-.48-1.22-.71-1.84-.06-.17-.13-.34-.19-.52l-.54-1.48c-.05-.16-.1-.31-.16-.46-.22-.65-.43-1.3-.64-1.95a.75.75,0,0,0-.05-.16c-.18-.6-.36-1.21-.52-1.81,0-.14-.09-.29-.13-.44-.15-.58-.3-1.16-.44-1.74a1.55,1.55,0,0,1-.05-.23c-.16-.67-.3-1.33-.42-2a1.55,1.55,0,0,1,0-.21c-.11-.58-.2-1.14-.27-1.71,0-.12,0-.24,0-.37-.08-.62-.15-1.23-.19-1.82h0C-4.12,359-1.91,366.63.71,373.15Z"/><path class="cls-88" d="M48.74,372.65h1.64c-.26-1-.48-2.09-.65-3.15h-1a122.77,122.77,0,0,1-8.66-13.93c-.11.6-.19,1.19-.27,1.79,0,.08,0,.17,0,.25-.06.53-.11,1.06-.14,1.59,0,0,0,.06,0,.09a32.89,32.89,0,0,0,0,3.58h0a30.44,30.44,0,0,1,.45-4.15A122.77,122.77,0,0,0,48.74,372.65Z"/><path class="cls-88" d="M27.56,364.65c2.22,2.76,4.58,5.41,7,8h6c-.26-1-.47-2.09-.64-3.15h-5.4c-2.43-2.56-4.79-5.21-7-8C23.68,356.67,19,351,13,351.72L15.52,355h0C20.33,355.8,24.25,360.52,27.56,364.65Z"/><path class="cls-89" d="M420,222.1c-84.41-1-183.64-1.33-281.38.16C67,223.36-54.8,224.15-91.84,224.37c-2.56,16.6-3.66,38.23,2.23,58.06H433.62C435.18,258,431.1,235.27,420,222.1Z"/><path class="cls-90" d="M291.44,151.87c.76,23.37,9.49,38.23,29.63,33,14.43,3.09,20.76-9.27,21.9-14.81,9.12-12.17,7.72-50.67.51-58-3.23-8.11-5.32-20.86-21.9-22.08C298.66,82.34,284,118.26,291.44,151.87Z"/><path class="cls-91" d="M343.16,152.1c-4.22,2.19-8.42-.72-10.32,6.14-2.34,8.44-6.86,3.79-9.37,8-3.54,5.92-9.36,6.7-15.44,2.83s-9.63,1.8-13.35,2.11c4.21,11.48,12.64,17.28,26.39,13.73,14.43,3.09,20.76-9.27,21.9-14.81,3.8-5.07,5.77-14.7,6.26-24.75C347.72,148.09,345.88,150.69,343.16,152.1Z"/><path class="cls-92" d="M317.84,166.55c-.32-4-1.33-14.29-5.7-16.61,4.37,1.17,6.13,4.31,7,5.41.55-2.64-.19-14.79.38-18.16A106.69,106.69,0,0,1,322,160.75c1-2.32,4.46-4.43,8.16-4.82-10,4-7.72,27.43-7.74,27.54l2.28,46.84h-8.33s.74-44.64.74-44.7C316.94,183.48,318.24,171.55,317.84,166.55Z"/><path class="cls-93" d="M300.56,163.37c1.1,1,2.17,2.11,3.24,3.18.51.5,1.05,1,1.54,1.5l.12.13.26.17c.59.39,1.17.81,1.77,1.19a1.49,1.49,0,0,1,.25.18l.41.13a34.86,34.86,0,0,0,3.43.94l1.91.39.33.08h0c1.24.15,2.48.3,3.73.38a76.23,76.23,0,0,0,8-.14h.16l.23-.06c.66-.15,1.31-.28,2-.46a24.21,24.21,0,0,0,2.45-.81,9.18,9.18,0,0,0,1-.5c.5-.35,1-.69,1.51-1,1.39-1,2.76-2,4.1-3.12,3.5-2.87,7.46-8,11.23-12.44,2-16.06.39-35.81-4.56-40.92-3.23-8.26-5.33-21.23-21.94-22.47-23-7.8-37.62,28.76-30.2,63C291.57,155.41,298.21,161.15,300.56,163.37Z"/><path class="cls-92" d="M317.34,167.61c.08,1.09.09,2.49.05,4,1.62.08,3.21,0,4.81,0,.76-6.25,2.74-12.79,7.6-14.74-3.74.39-7.24,2.53-8.24,4.87a107.86,107.86,0,0,0-2.5-23.8c-.57,3.4.18,15.68-.38,18.34-.91-1.1-2.69-4.28-7.1-5.46C316,153.18,317,163.61,317.34,167.61Z"/><path class="cls-94" d="M81.8,210.58c-5.59,3.2-9.24,5-11.24,5.29-1.8.26-5.46-1.2-5.43-6.41.05-8,3.75-20.87,8.21-28.13A16.76,16.76,0,0,1,79.78,175c.69-.34,1-.12,1.12.31a35.21,35.21,0,0,1,.66,5.28,12.47,12.47,0,0,1,5.06,1.15c-.1-3.12-.47-7.73-1.74-9.72a4.79,4.79,0,0,0-4.19-2.15c-3.74,0-8.31,3.56-11.64,9-5.69,9.26-8.58,22-8.92,30.46a11.14,11.14,0,0,0,3.54,8.91,9.9,9.9,0,0,0,7.49,2.54c1.68-.25,8.25-2.92,15.14-7.05-.36-.23-3.42-2.3-4.5-3.09"/><path class="cls-94" d="M94.27,182.39a9.69,9.69,0,0,0-10.08,9.23,3.71,3.71,0,0,0,3.61,3.87c3.14,0,4-3.38,3.51-5.14h0L89.24,192c-.31-3.53,3.38-4.67,5-4.67h0a5.36,5.36,0,0,1,5.57,5.45c0,3.33-3.63,8-10.22,12.8l4.44,2.85c6.88-5.42,10.78-10.65,10.78-15.65,0-6.72-5.45-10.34-10.58-10.34"/><path class="cls-94" d="M83.53,209.57C75.4,203.79,70.76,198,70.76,193.28a10.76,10.76,0,0,1,10.58-10.89,10.53,10.53,0,0,1,4.84,1.14,12,12,0,0,0-3,4.05,5.88,5.88,0,0,0-1.85-.3,5.81,5.81,0,0,0-5.58,6c0,4.59,9.32,11.9,16.74,16.29a89,89,0,0,0,12.11,6.19c1.68.58,5.86-.78,5.86-6.3,0-9.3-3.75-20.87-8.21-28.13A16.69,16.69,0,0,0,95.83,175c-.7-.34-1-.12-1.12.31a33.68,33.68,0,0,0-.67,5.28A12.51,12.51,0,0,0,89,181.71c.1-3.12.47-7.73,1.75-9.72a4.79,4.79,0,0,1,4.18-2.15c3.75,0,8.32,3.56,11.64,9,5.69,9.26,8.58,22,8.92,30.46a11.11,11.11,0,0,1-3.54,8.91c-1.84,1.67-5.21,3.08-7.48,2.54-3.67-.85-14.82-6.48-20.92-11.15"/><path class="cls-95" d="M124.15,187.62h9.33c4.34,0,6.7,2.93,6.7,6.43s-2.39,6.37-6.7,6.37h-5.09v7.15h-4.24Zm8.76,3.65h-4.52v5.5h4.52a2.76,2.76,0,1,0,0-5.5"/><path class="cls-95" d="M152.84,204.13h-8.92l-1.25,3.44H138l7.72-19.95H151l7.69,19.95H154.1Zm-7.78-3.68h6.61l-3.29-9.15Z"/><polygon class="cls-95" points="174.22 199.17 164.79 199.17 164.79 207.54 160.54 207.54 160.54 187.59 164.79 187.59 164.79 195.43 174.22 195.43 174.22 187.59 178.49 187.59 178.49 207.54 174.22 207.54 174.22 199.17"/><rect class="cls-95" x="187.76" y="187.6" width="4.25" height="19.95"/><path class="cls-95" d="M204.57,198.81c0-2-1-2.69-2.67-2.69a4.12,4.12,0,0,0-3.29,1.71v9.72h-3.8V193.1h3.8V195a6.66,6.66,0,0,1,5.06-2.24c3.17,0,4.7,1.79,4.7,4.61v10.2h-3.8Z"/><path class="cls-95" d="M210.28,188.7a2.27,2.27,0,1,1,2.27,2.28,2.29,2.29,0,0,1-2.27-2.28m.38,4.4h3.8v14.45h-3.8Z"/><path class="cls-95" d="M218.65,204v-7.54h-2.39V193.1h2.39v-3.95h3.83v3.95h2.93v3.32h-2.93v6.52c0,.9.48,1.59,1.32,1.59a2.08,2.08,0,0,0,1.32-.42l.8,2.87a4.67,4.67,0,0,1-3.17.93c-2.66,0-4.1-1.38-4.1-3.95"/><path class="cls-95" d="M227.29,188.7a2.28,2.28,0,1,1,2.27,2.28,2.29,2.29,0,0,1-2.27-2.28m.39,4.4h3.8v14.45h-3.8Z"/><path class="cls-95" d="M242.57,206.05a6,6,0,0,1-4.57,1.86,4.82,4.82,0,0,1-5-4.79c0-3.38,2.72-4.61,5-4.61a5.81,5.81,0,0,1,4.57,1.77v-2c0-1.47-1.25-2.43-3.17-2.43a6.05,6.05,0,0,0-4.21,1.71L233.75,195a9.51,9.51,0,0,1,6.31-2.27c3.29,0,6.31,1.32,6.31,5.48v9.33h-3.8Zm0-3.77a3.8,3.8,0,0,0-3-1.25c-1.49,0-2.72.8-2.72,2.18s1.23,2.12,2.72,2.12a3.77,3.77,0,0,0,3-1.25Z"/><path class="cls-95" d="M249.54,204v-7.54h-2.39V193.1h2.39v-3.95h3.83v3.95h2.93v3.32h-2.93v6.52c0,.9.48,1.59,1.32,1.59a2.08,2.08,0,0,0,1.32-.42l.8,2.87a4.67,4.67,0,0,1-3.17.93c-2.66,0-4.1-1.38-4.1-3.95"/><path class="cls-95" d="M258.37,188.7a2.27,2.27,0,1,1,2.27,2.28,2.29,2.29,0,0,1-2.27-2.28m.39,4.4h3.8v14.45h-3.8Z"/><polygon class="cls-95" points="263.81 193.1 267.88 193.1 271.65 203.15 275.42 193.1 279.52 193.1 273.71 207.55 269.61 207.55 263.81 193.1"/><path class="cls-95" d="M286.42,192.74c4.31,0,7.24,3.23,7.24,8v.83H282.92a3.9,3.9,0,0,0,4.16,3.36,5.9,5.9,0,0,0,3.86-1.44l1.68,2.45a8.9,8.9,0,0,1-6,2,7.59,7.59,0,1,1-.24-15.17M282.86,199H290a3.35,3.35,0,0,0-3.56-3.2,3.48,3.48,0,0,0-3.56,3.2"/></g></g></g></svg>